<svg xmlns="http://www.w3.org/2000/svg" viewBox="0 0 1200 920" font-family="-apple-system,BlinkMacSystemFont,&quot;Helvetica Neue&quot;,&quot;Hiragino Sans&quot;,&quot;Yu Gothic&quot;,sans-serif">
<style>
text { font-size: 11px; }
.bg { fill: #fbfaf6; }
.title { font-size: 17px; font-weight: 700; fill: #1a1a1a; }
.subtitle { font-size: 11.5px; fill: #555; }
.axis-line { stroke: #c8c4ba; stroke-width: 0.7; }
.ring { fill: none; stroke: #d8d3c4; stroke-width: 0.7; stroke-dasharray: 2 3; }
.axis-label-ja { font-size: 9.5px; fill: #2a2a2a; font-weight: 500; }
.axis-label-meta { font-size: 8.5px; fill: #777; font-family: ui-monospace,SFMono-Regular,Menlo,monospace; }
.ring-label { font-size: 8.5px; fill: #999; font-family: ui-monospace,SFMono-Regular,Menlo,monospace; }
.legend-text { font-size: 11px; fill: #2a2a2a; }
.legend-meta { font-size: 9.5px; fill: #666; }
.frame-label { font-size: 10.5px; font-weight: 600; fill: #6a604c; letter-spacing: 0.05em; }
@media (prefers-color-scheme: dark) {
  .bg { fill: #14161a; }
  .title { fill: #ececec; }
  .subtitle { fill: #b0b0b0; }
  .axis-line { stroke: #44474e; }
  .ring { stroke: #3a3d44; }
  .axis-label-ja { fill: #e0e0e0; }
  .axis-label-meta { fill: #9a9a9a; }
  .ring-label { fill: #888; }
  .legend-text { fill: #e0e0e0; }
  .legend-meta { fill: #aaa; }
  .frame-label { fill: #b8a98e; }
}
</style>
<rect class="bg" width="1200" height="920"/>
<text class="title" x="600.0" y="38" text-anchor="middle">機能ベクトル レーダーチャート</text>
<text class="subtitle" x="600.0" y="58" text-anchor="middle">25 機能 (Miller 生命系 20 + Beer VSM 5) × 各 era 代表 6 組織 / 値=注釈 confidence (0–1)</text>
<circle class="ring" cx="600.0" cy="480.0" r="80.0"/>
<text class="ring-label" x="603.0" y="398.0">0.25</text>
<circle class="ring" cx="600.0" cy="480.0" r="160.0"/>
<text class="ring-label" x="603.0" y="318.0">0.50</text>
<circle class="ring" cx="600.0" cy="480.0" r="240.0"/>
<text class="ring-label" x="603.0" y="238.0">0.75</text>
<circle class="ring" cx="600.0" cy="480.0" r="320.0"/>
<text class="ring-label" x="603.0" y="158.0">1.00</text>
<path d="M 584.3 477.0 L 248.3 412.9 A 358.0 358.0 0 0 1 555.1 124.8 L 598.0 464.1 A 16.0 16.0 0 0 0 584.3 477.0 Z" fill="#d2c8b0" opacity="0.18"/>
<line class="axis-line" x1="600.0" y1="480.0" x2="600.0" y2="160.0"/>
<line class="axis-line" x1="600.0" y1="480.0" x2="679.6" y2="170.1"/>
<line class="axis-line" x1="600.0" y1="480.0" x2="754.2" y2="199.6"/>
<line class="axis-line" x1="600.0" y1="480.0" x2="819.1" y2="246.7"/>
<line class="axis-line" x1="600.0" y1="480.0" x2="870.2" y2="308.5"/>
<line class="axis-line" x1="600.0" y1="480.0" x2="904.3" y2="381.1"/>
<line class="axis-line" x1="600.0" y1="480.0" x2="919.4" y2="459.9"/>
<line class="axis-line" x1="600.0" y1="480.0" x2="914.3" y2="540.0"/>
<line class="axis-line" x1="600.0" y1="480.0" x2="889.5" y2="616.2"/>
<line class="axis-line" x1="600.0" y1="480.0" x2="846.6" y2="684.0"/>
<line class="axis-line" x1="600.0" y1="480.0" x2="788.1" y2="738.9"/>
<line class="axis-line" x1="600.0" y1="480.0" x2="717.8" y2="777.5"/>
<line class="axis-line" x1="600.0" y1="480.0" x2="640.1" y2="797.5"/>
<line class="axis-line" x1="600.0" y1="480.0" x2="559.9" y2="797.5"/>
<line class="axis-line" x1="600.0" y1="480.0" x2="482.2" y2="777.5"/>
<line class="axis-line" x1="600.0" y1="480.0" x2="411.9" y2="738.9"/>
<line class="axis-line" x1="600.0" y1="480.0" x2="353.4" y2="684.0"/>
<line class="axis-line" x1="600.0" y1="480.0" x2="310.5" y2="616.2"/>
<line class="axis-line" x1="600.0" y1="480.0" x2="285.7" y2="540.0"/>
<line class="axis-line" x1="600.0" y1="480.0" x2="280.6" y2="459.9"/>
<line class="axis-line" x1="600.0" y1="480.0" x2="295.7" y2="381.1"/>
<line class="axis-line" x1="600.0" y1="480.0" x2="329.8" y2="308.5"/>
<line class="axis-line" x1="600.0" y1="480.0" x2="380.9" y2="246.7"/>
<line class="axis-line" x1="600.0" y1="480.0" x2="445.8" y2="199.6"/>
<line class="axis-line" x1="600.0" y1="480.0" x2="520.4" y2="170.1"/>
<text class="axis-label-ja" x="600.0" y="146.0" text-anchor="middle">再生産</text>
<text class="axis-label-meta" x="600.0" y="157.0" text-anchor="middle">M01</text>
<text class="axis-label-ja" x="683.1" y="156.5" text-anchor="start">境界維持</text>
<text class="axis-label-meta" x="683.1" y="167.5" text-anchor="start">M02</text>
<text class="axis-label-ja" x="760.9" y="187.3" text-anchor="start">取り込み</text>
<text class="axis-label-meta" x="760.9" y="198.3" text-anchor="start">M03</text>
<text class="axis-label-ja" x="828.6" y="236.5" text-anchor="start">配分</text>
<text class="axis-label-meta" x="828.6" y="247.5" text-anchor="start">M04</text>
<text class="axis-label-ja" x="882.0" y="301.0" text-anchor="start">変換</text>
<text class="axis-label-meta" x="882.0" y="312.0" text-anchor="start">M05</text>
<text class="axis-label-ja" x="917.7" y="376.8" text-anchor="start">生産</text>
<text class="axis-label-meta" x="917.7" y="387.8" text-anchor="start">M06</text>
<text class="axis-label-ja" x="933.3" y="459.0" text-anchor="start">物質・エネルギー貯蔵</text>
<text class="axis-label-meta" x="933.3" y="470.0" text-anchor="start">M07</text>
<text class="axis-label-ja" x="928.1" y="542.6" text-anchor="start">排出</text>
<text class="axis-label-meta" x="928.1" y="553.6" text-anchor="start">M08</text>
<text class="axis-label-ja" x="902.2" y="622.2" text-anchor="start">移動・作動</text>
<text class="axis-label-meta" x="902.2" y="633.2" text-anchor="start">M09</text>
<text class="axis-label-ja" x="857.4" y="692.9" text-anchor="start">支持・構造保持</text>
<text class="axis-label-meta" x="857.4" y="703.9" text-anchor="start">M10</text>
<text class="axis-label-ja" x="796.3" y="750.2" text-anchor="start">入力変換</text>
<text class="axis-label-meta" x="796.3" y="761.2" text-anchor="start">M11</text>
<text class="axis-label-ja" x="723.0" y="790.5" text-anchor="start">内部状態変換</text>
<text class="axis-label-meta" x="723.0" y="801.5" text-anchor="start">M12</text>
<text class="axis-label-ja" x="641.9" y="811.4" text-anchor="middle">通信路・ネットワーク</text>
<text class="axis-label-meta" x="641.9" y="822.4" text-anchor="middle">M13</text>
<text class="axis-label-ja" x="558.1" y="811.4" text-anchor="middle">時間調整</text>
<text class="axis-label-meta" x="558.1" y="822.4" text-anchor="middle">M14</text>
<text class="axis-label-ja" x="477.0" y="790.5" text-anchor="end">解読</text>
<text class="axis-label-meta" x="477.0" y="801.5" text-anchor="end">M15</text>
<text class="axis-label-ja" x="403.7" y="750.2" text-anchor="end">関連付け・学習</text>
<text class="axis-label-meta" x="403.7" y="761.2" text-anchor="end">M16</text>
<text class="axis-label-ja" x="342.6" y="692.9" text-anchor="end">記憶</text>
<text class="axis-label-meta" x="342.6" y="703.9" text-anchor="end">M17</text>
<text class="axis-label-ja" x="297.8" y="622.2" text-anchor="end">意思決定</text>
<text class="axis-label-meta" x="297.8" y="633.2" text-anchor="end">M18</text>
<text class="axis-label-ja" x="271.9" y="542.6" text-anchor="end">符号化</text>
<text class="axis-label-meta" x="271.9" y="553.6" text-anchor="end">M19</text>
<text class="axis-label-ja" x="266.7" y="459.0" text-anchor="end">出力変換</text>
<text class="axis-label-meta" x="266.7" y="470.0" text-anchor="end">M20</text>
<text class="axis-label-ja" x="282.3" y="376.8" text-anchor="end">現業・一次活動</text>
<text class="axis-label-meta" x="282.3" y="387.8" text-anchor="end">VS1</text>
<text class="axis-label-ja" x="318.0" y="301.0" text-anchor="end">調整・安定化</text>
<text class="axis-label-meta" x="318.0" y="312.0" text-anchor="end">VS2</text>
<text class="axis-label-ja" x="371.4" y="236.5" text-anchor="end">内部統制・最適化</text>
<text class="axis-label-meta" x="371.4" y="247.5" text-anchor="end">VS3</text>
<text class="axis-label-ja" x="439.1" y="187.3" text-anchor="end">環境知能・戦略</text>
<text class="axis-label-meta" x="439.1" y="198.3" text-anchor="end">VS4</text>
<text class="axis-label-ja" x="516.9" y="156.5" text-anchor="end">方針・同一性</text>
<text class="axis-label-meta" x="516.9" y="167.5" text-anchor="end">VS5</text>
<text class="frame-label" x="867.0" y="764.3" text-anchor="middle">MILLER (生命系 20 サブシステム)</text>
<text class="frame-label" x="333.0" y="195.7" text-anchor="middle">BEER VSM (S1–S5)</text>
<polygon points="600.0,192.0 600.0,480.0 600.0,480.0 600.0,480.0 600.0,480.0 600.0,480.0 871.5,462.9 600.0,480.0 600.0,480.0 600.0,480.0 600.0,480.0 600.0,480.0 600.0,480.0 600.0,480.0 600.0,480.0 600.0,480.0 365.8,673.8 600.0,480.0 600.0,480.0 600.0,480.0 600.0,480.0 600.0,480.0 600.0,480.0 600.0,480.0 524.4,185.6" fill="#7d6b5c" fill-opacity="0.18" stroke="#7d6b5c" stroke-width="1.6" stroke-opacity="0.9" stroke-linejoin="round"/>
<circle cx="600.0" cy="192.0" r="3.2" fill="#7d6b5c" stroke="#fff" stroke-width="0.8" stroke-opacity="0.7"><title>ベネディクト会 / 再生産 (Reproducer) = 0.90</title></circle>
<circle cx="871.5" cy="462.9" r="3.2" fill="#7d6b5c" stroke="#fff" stroke-width="0.8" stroke-opacity="0.7"><title>ベネディクト会 / 物質・エネルギー貯蔵 (Matter-Energy Storage) = 0.85</title></circle>
<circle cx="365.8" cy="673.8" r="3.2" fill="#7d6b5c" stroke="#fff" stroke-width="0.8" stroke-opacity="0.7"><title>ベネディクト会 / 記憶 (Memory) = 0.95</title></circle>
<circle cx="524.4" cy="185.6" r="3.2" fill="#7d6b5c" stroke="#fff" stroke-width="0.8" stroke-opacity="0.7"><title>ベネディクト会 / 方針・同一性 (System 5 Policy and Identity) = 0.95</title></circle>
<polygon points="600.0,192.0 600.0,480.0 600.0,480.0 600.0,480.0 600.0,480.0 873.9,391.0 600.0,480.0 600.0,480.0 600.0,480.0 600.0,480.0 600.0,480.0 600.0,480.0 600.0,480.0 600.0,480.0 600.0,480.0 600.0,480.0 600.0,480.0 600.0,480.0 600.0,480.0 600.0,480.0 600.0,480.0 343.3,317.1 600.0,480.0 600.0,480.0 600.0,480.0" fill="#5a8a6b" fill-opacity="0.18" stroke="#5a8a6b" stroke-width="1.6" stroke-opacity="0.9" stroke-linejoin="round"/>
<circle cx="600.0" cy="192.0" r="3.2" fill="#5a8a6b" stroke="#fff" stroke-width="0.8" stroke-opacity="0.7"><title>Cistercians / 再生産 (Reproducer) = 0.90</title></circle>
<circle cx="873.9" cy="391.0" r="3.2" fill="#5a8a6b" stroke="#fff" stroke-width="0.8" stroke-opacity="0.7"><title>Cistercians / 生産 (Producer) = 0.90</title></circle>
<circle cx="343.3" cy="317.1" r="3.2" fill="#5a8a6b" stroke="#fff" stroke-width="0.8" stroke-opacity="0.7"><title>Cistercians / 調整・安定化 (System 2 Coordination) = 0.95</title></circle>
<polygon points="600.0,480.0 671.6,201.0 600.0,480.0 600.0,480.0 600.0,480.0 600.0,480.0 600.0,480.0 600.0,480.0 600.0,480.0 600.0,480.0 600.0,480.0 600.0,480.0 634.1,749.9 600.0,480.0 600.0,480.0 600.0,480.0 600.0,480.0 600.0,480.0 600.0,480.0 600.0,480.0 600.0,480.0 370.3,334.3 600.0,480.0 600.0,480.0 600.0,480.0" fill="#c08a3e" fill-opacity="0.18" stroke="#c08a3e" stroke-width="1.6" stroke-opacity="0.9" stroke-linejoin="round"/>
<circle cx="671.6" cy="201.0" r="3.2" fill="#c08a3e" stroke="#fff" stroke-width="0.8" stroke-opacity="0.7"><title>ハンザ同盟 / 境界維持 (Boundary) = 0.90</title></circle>
<circle cx="634.1" cy="749.9" r="3.2" fill="#c08a3e" stroke="#fff" stroke-width="0.8" stroke-opacity="0.7"><title>ハンザ同盟 / 通信路・ネットワーク (Channel and Net) = 0.85</title></circle>
<circle cx="370.3" cy="334.3" r="3.2" fill="#c08a3e" stroke="#fff" stroke-width="0.8" stroke-opacity="0.7"><title>ハンザ同盟 / 調整・安定化 (System 2 Coordination) = 0.85</title></circle>
<polygon points="600.0,480.0 671.6,201.0 738.7,227.6 600.0,480.0 600.0,480.0 889.1,386.1 600.0,480.0 600.0,480.0 600.0,480.0 600.0,480.0 600.0,480.0 600.0,480.0 600.0,480.0 600.0,480.0 600.0,480.0 600.0,480.0 365.8,673.8 324.9,609.4 600.0,480.0 600.0,480.0 341.3,395.9 600.0,480.0 600.0,480.0 476.7,255.7 600.0,480.0" fill="#b25c5c" fill-opacity="0.18" stroke="#b25c5c" stroke-width="1.6" stroke-opacity="0.9" stroke-linejoin="round"/>
<circle cx="671.6" cy="201.0" r="3.2" fill="#b25c5c" stroke="#fff" stroke-width="0.8" stroke-opacity="0.7"><title>VOC / 境界維持 (Boundary) = 0.90</title></circle>
<circle cx="738.7" cy="227.6" r="3.2" fill="#b25c5c" stroke="#fff" stroke-width="0.8" stroke-opacity="0.7"><title>VOC / 取り込み (Ingestor) = 0.90</title></circle>
<circle cx="889.1" cy="386.1" r="3.2" fill="#b25c5c" stroke="#fff" stroke-width="0.8" stroke-opacity="0.7"><title>VOC / 生産 (Producer) = 0.95</title></circle>
<circle cx="365.8" cy="673.8" r="3.2" fill="#b25c5c" stroke="#fff" stroke-width="0.8" stroke-opacity="0.7"><title>VOC / 記憶 (Memory) = 0.95</title></circle>
<circle cx="324.9" cy="609.4" r="3.2" fill="#b25c5c" stroke="#fff" stroke-width="0.8" stroke-opacity="0.7"><title>VOC / 意思決定 (Decider) = 0.95</title></circle>
<circle cx="341.3" cy="395.9" r="3.2" fill="#b25c5c" stroke="#fff" stroke-width="0.8" stroke-opacity="0.7"><title>VOC / 現業・一次活動 (System 1 Operations) = 0.85</title></circle>
<circle cx="476.7" cy="255.7" r="3.2" fill="#b25c5c" stroke="#fff" stroke-width="0.8" stroke-opacity="0.7"><title>VOC / 環境知能・戦略 (System 4 Intelligence and Strategy) = 0.80</title></circle>
<polygon points="600.0,192.0 600.0,480.0 746.5,213.6 600.0,480.0 600.0,480.0 600.0,480.0 600.0,480.0 600.0,480.0 600.0,480.0 600.0,480.0 600.0,480.0 600.0,480.0 600.0,480.0 600.0,480.0 600.0,480.0 600.0,480.0 600.0,480.0 600.0,480.0 600.0,480.0 600.0,480.0 600.0,480.0 600.0,480.0 402.9,270.1 600.0,480.0 528.4,201.0" fill="#4d7ea8" fill-opacity="0.18" stroke="#4d7ea8" stroke-width="1.6" stroke-opacity="0.9" stroke-linejoin="round"/>
<circle cx="600.0" cy="192.0" r="3.2" fill="#4d7ea8" stroke="#fff" stroke-width="0.8" stroke-opacity="0.7"><title>Mondragón / 再生産 (Reproducer) = 0.90</title></circle>
<circle cx="746.5" cy="213.6" r="3.2" fill="#4d7ea8" stroke="#fff" stroke-width="0.8" stroke-opacity="0.7"><title>Mondragón / 取り込み (Ingestor) = 0.95</title></circle>
<circle cx="402.9" cy="270.1" r="3.2" fill="#4d7ea8" stroke="#fff" stroke-width="0.8" stroke-opacity="0.7"><title>Mondragón / 内部統制・最適化 (System 3 Internal Control and Audit) = 0.90</title></circle>
<circle cx="528.4" cy="201.0" r="3.2" fill="#4d7ea8" stroke="#fff" stroke-width="0.8" stroke-opacity="0.7"><title>Mondragón / 方針・同一性 (System 5 Policy and Identity) = 0.90</title></circle>
<polygon points="600.0,480.0 671.6,201.0 600.0,480.0 600.0,480.0 600.0,480.0 600.0,480.0 600.0,480.0 600.0,480.0 600.0,480.0 600.0,480.0 600.0,480.0 600.0,480.0 600.0,480.0 600.0,480.0 600.0,480.0 600.0,480.0 365.8,673.8 339.4,602.6 600.0,480.0 600.0,480.0 600.0,480.0 600.0,480.0 600.0,480.0 600.0,480.0 532.4,216.5" fill="#9560a0" fill-opacity="0.18" stroke="#9560a0" stroke-width="1.6" stroke-opacity="0.9" stroke-linejoin="round"/>
<circle cx="671.6" cy="201.0" r="3.2" fill="#9560a0" stroke="#fff" stroke-width="0.8" stroke-opacity="0.7"><title>MakerDAO / 境界維持 (Boundary) = 0.90</title></circle>
<circle cx="365.8" cy="673.8" r="3.2" fill="#9560a0" stroke="#fff" stroke-width="0.8" stroke-opacity="0.7"><title>MakerDAO / 記憶 (Memory) = 0.95</title></circle>
<circle cx="339.4" cy="602.6" r="3.2" fill="#9560a0" stroke="#fff" stroke-width="0.8" stroke-opacity="0.7"><title>MakerDAO / 意思決定 (Decider) = 0.90</title></circle>
<circle cx="532.4" cy="216.5" r="3.2" fill="#9560a0" stroke="#fff" stroke-width="0.8" stroke-opacity="0.7"><title>MakerDAO / 方針・同一性 (System 5 Policy and Identity) = 0.85</title></circle>
<text class="frame-label" x="60" y="726">代表組織 (era 順)</text>
<rect x="60" y="730" width="22" height="12" rx="2" ry="2" fill="#7d6b5c" fill-opacity="0.5" stroke="#7d6b5c" stroke-width="1.4"/>
<text class="legend-text" x="90" y="740">ベネディクト会</text>
<text class="legend-meta" x="204" y="740">中世初期 (529–) / 機能=4</text>
<rect x="60" y="754" width="22" height="12" rx="2" ry="2" fill="#5a8a6b" fill-opacity="0.5" stroke="#5a8a6b" stroke-width="1.4"/>
<text class="legend-text" x="90" y="764">Cistercians</text>
<text class="legend-meta" x="252" y="764">中世盛期 (1098–) / 機能=3</text>
<rect x="60" y="778" width="22" height="12" rx="2" ry="2" fill="#c08a3e" fill-opacity="0.5" stroke="#c08a3e" stroke-width="1.4"/>
<text class="legend-text" x="90" y="788">ハンザ同盟</text>
<text class="legend-meta" x="180" y="788">中世後期 (1159–1669) / 機能=3</text>
<rect x="60" y="802" width="22" height="12" rx="2" ry="2" fill="#b25c5c" fill-opacity="0.5" stroke="#b25c5c" stroke-width="1.4"/>
<text class="legend-text" x="90" y="812">VOC</text>
<text class="legend-meta" x="156" y="812">近世 (1602–1799) / 機能=7</text>
<rect x="60" y="826" width="22" height="12" rx="2" ry="2" fill="#4d7ea8" fill-opacity="0.5" stroke="#4d7ea8" stroke-width="1.4"/>
<text class="legend-text" x="90" y="836">Mondragón</text>
<text class="legend-meta" x="228" y="836">現代 (1956–) / 機能=4</text>
<rect x="60" y="850" width="22" height="12" rx="2" ry="2" fill="#9560a0" fill-opacity="0.5" stroke="#9560a0" stroke-width="1.4"/>
<text class="legend-text" x="90" y="860">MakerDAO</text>
<text class="legend-meta" x="216" y="860">現代 (2017–) / 機能=4</text>
</svg>