<svg xmlns="http://www.w3.org/2000/svg" viewBox="0 0 1280 720" font-family="-apple-system,system-ui,sans-serif">
<style>
text { font-size: 11px; }
.node-label { font-size: 11.5px; font-weight: 600; fill: #1a1a1a; }
.node-date { font-size: 9.5px; fill: #6b6b6b; font-family: monospace; }
.year-tick { font-size: 10px; fill: #999; font-family: monospace; }
.edge-label { font-size: 9px; fill: #555; }
@media (prefers-color-scheme: dark) {
  .bg { fill: #121212; }
  .node-label { fill: #e0e0e0; }
  .node-date { fill: #aaa; }
  .year-tick { fill: #777; }
  .edge-label { fill: #999; }
}
</style>
<rect class="bg" width="1280" height="720" fill="#f7f7f5"/>
<rect class="bg" width="1280" height="720" fill="url(#bg-pattern)" opacity="0.05"/>
<line x1="80" y1="656" x2="1220" y2="656" stroke="#999" stroke-width="1"/>
<line x1="80.0" y1="652" x2="80.0" y2="660" stroke="#999" stroke-width="1"/>
<text class="year-tick" x="80.0" y="674" text-anchor="middle">500</text>
<line x1="182.6" y1="652" x2="182.6" y2="660" stroke="#999" stroke-width="1"/>
<text class="year-tick" x="182.6" y="674" text-anchor="middle">800</text>
<line x1="285.2" y1="652" x2="285.2" y2="660" stroke="#999" stroke-width="1"/>
<text class="year-tick" x="285.2" y="674" text-anchor="middle">1100</text>
<line x1="387.8" y1="652" x2="387.8" y2="660" stroke="#999" stroke-width="1"/>
<text class="year-tick" x="387.8" y="674" text-anchor="middle">1400</text>
<line x1="723.132075471698" y1="652" x2="723.132075471698" y2="660" stroke="#999" stroke-width="1"/>
<text class="year-tick" x="723.132075471698" y="674" text-anchor="middle">1700</text>
<line x1="1024.264150943396" y1="652" x2="1024.264150943396" y2="660" stroke="#999" stroke-width="1"/>
<text class="year-tick" x="1024.264150943396" y="674" text-anchor="middle">1900</text>
<line x1="1174.830188679245" y1="652" x2="1174.830188679245" y2="660" stroke="#999" stroke-width="1"/>
<text class="year-tick" x="1174.830188679245" y="674" text-anchor="middle">2000</text>
<line x1="1213.977358490566" y1="652" x2="1213.977358490566" y2="660" stroke="#999" stroke-width="1"/>
<text class="year-tick" x="1213.977358490566" y="674" text-anchor="middle">2026</text>
<rect x="80.0" y="52" width="342.0" height="588" fill="#f5efe8" opacity="0.4"/>
<text x="251.0" y="48" text-anchor="middle" font-size="11" fill="#888">中世</text>
<rect x="422.0" y="52" width="451.69811320754707" height="588" fill="#ebe1d6" opacity="0.4"/>
<text x="647.8490566037735" y="48" text-anchor="middle" font-size="11" fill="#888">近世</text>
<rect x="873.6981132075471" y="52" width="218.32075471698136" height="588" fill="#f0e8d8" opacity="0.4"/>
<text x="982.8584905660377" y="48" text-anchor="middle" font-size="11" fill="#888">近代</text>
<rect x="1092.0188679245284" y="52" width="127.98113207547158" height="588" fill="#e8e8e0" opacity="0.4"/>
<text x="1156.0094339622642" y="48" text-anchor="middle" font-size="11" fill="#888">現代</text>
<path d="M 305.378 184.28571428571428 Q 440.47767924528296 154.28571428571428 575.577358490566 184.28571428571428" stroke="#4a7a8c" stroke-width="1.6" fill="none" opacity="0.50" stroke-dasharray="4 3" marker-end="url(#arrow-knowledge_transfer)"/>
<path d="M 575.577358490566 184.28571428571428 Q 888.0018867924528 320.0 1200.4264150943395 515.7142857142858" stroke="#8a70a0" stroke-width="1.6" fill="none" opacity="0.40" stroke-dasharray="3 3" marker-end="url(#arrow-mimetic_isomorphism)"/>
<path d="M 89.918 101.42857142857143 Q 599.2495660377358 71.42857142857143 1108.5811320754717 101.42857142857143" stroke="#8a70a0" stroke-width="1.6" fill="none" opacity="0.50" stroke-dasharray="3 3" marker-end="url(#arrow-mimetic_isomorphism)"/>
<path d="M 682.4792452830188 350.0 Q 669.6811320754716 195.71428571428572 656.8830188679244 101.42857142857143" stroke="#c66060" stroke-width="1.6" fill="none" opacity="0.60" stroke-dasharray="8 4" marker-end="url(#arrow-competition)"/>
<path d="M 1179.3471698113206 267.14285714285717 Q 1189.88679245283 361.42857142857144 1200.4264150943395 515.7142857142858" stroke="#8a70a0" stroke-width="1.6" fill="none" opacity="0.45" stroke-dasharray="3 3" marker-end="url(#arrow-mimetic_isomorphism)"/>
<path d="M 89.918 101.42857142857143 Q 155.06900000000002 71.42857142857143 220.22 101.42857142857143" stroke="#2e5a3f" stroke-width="1.6" fill="none" opacity="0.95" stroke-dasharray="" marker-end="url(#arrow-succession)"/>
<path d="M 220.22 101.42857142857143 Q 252.368 195.71428571428572 284.51599999999996 350.0" stroke="#b07256" stroke-width="1.6" fill="none" opacity="0.95" stroke-dasharray="6 3" marker-end="url(#arrow-schism)"/>
<path d="M 89.918 101.42857142857143 Q 187.21699999999998 195.71428571428572 284.51599999999996 350.0" stroke="#2e5a3f" stroke-width="1.6" fill="none" opacity="0.90" stroke-dasharray="" marker-end="url(#arrow-succession)"/>
<path d="M 284.51599999999996 350.0 Q 282.806 278.57142857142856 281.096 267.14285714285717" stroke="#4a7a8c" stroke-width="1.6" fill="none" opacity="0.50" stroke-dasharray="4 3" marker-end="url(#arrow-knowledge_transfer)"/>
<path d="M 1179.3471698113206 267.14285714285717 Q 1182.3584905660377 278.57142857142856 1185.3698113207547 350.0" stroke="#8a70a0" stroke-width="1.6" fill="none" opacity="0.60" stroke-dasharray="3 3" marker-end="url(#arrow-mimetic_isomorphism)"/>
<path d="M 1108.5811320754717 101.42857142857143 Q 1128.907547169811 112.85714285714286 1149.2339622641507 184.28571428571428" stroke="#8a70a0" stroke-width="1.6" fill="none" opacity="0.45" stroke-dasharray="3 3" marker-end="url(#arrow-mimetic_isomorphism)"/>
<path d="M 178.49599999999998 184.28571428571428 Q 430.4876226415094 237.1428571428571 682.4792452830188 350.0" stroke="#4a7a8c" stroke-width="1.6" fill="none" opacity="0.30" stroke-dasharray="4 3" marker-end="url(#arrow-knowledge_transfer)"/>
<path d="M 281.096 267.14285714285717 Q 730.2215849056603 237.14285714285717 1179.3471698113206 267.14285714285717" stroke="#4a7a8c" stroke-width="1.6" fill="none" opacity="0.40" stroke-dasharray="4 3" marker-end="url(#arrow-knowledge_transfer)"/>
<defs>
<marker id="arrow-succession" viewBox="0 0 10 10" refX="9" refY="5" markerWidth="6" markerHeight="6" orient="auto">
<path d="M 0 0 L 10 5 L 0 10 z" fill="#2e5a3f"/>
</marker>
<marker id="arrow-schism" viewBox="0 0 10 10" refX="9" refY="5" markerWidth="6" markerHeight="6" orient="auto">
<path d="M 0 0 L 10 5 L 0 10 z" fill="#b07256"/>
</marker>
<marker id="arrow-knowledge_transfer" viewBox="0 0 10 10" refX="9" refY="5" markerWidth="6" markerHeight="6" orient="auto">
<path d="M 0 0 L 10 5 L 0 10 z" fill="#4a7a8c"/>
</marker>
<marker id="arrow-mimetic_isomorphism" viewBox="0 0 10 10" refX="9" refY="5" markerWidth="6" markerHeight="6" orient="auto">
<path d="M 0 0 L 10 5 L 0 10 z" fill="#8a70a0"/>
</marker>
<marker id="arrow-competition" viewBox="0 0 10 10" refX="9" refY="5" markerWidth="6" markerHeight="6" orient="auto">
<path d="M 0 0 L 10 5 L 0 10 z" fill="#c66060"/>
</marker>
<marker id="arrow-merger" viewBox="0 0 10 10" refX="9" refY="5" markerWidth="6" markerHeight="6" orient="auto">
<path d="M 0 0 L 10 5 L 0 10 z" fill="#5a8a4a"/>
</marker>
</defs>
<line x1="89.918" y1="111.42857142857143" x2="1213.977358490566" y2="111.42857142857143" stroke="#2e5a3f" stroke-width="2" opacity="0.6"/>
<text x="1216.977358490566" y="115.42857142857143" font-size="10" fill="#2e5a3f">▶</text>
<circle cx="89.918" cy="101.42857142857143" r="10.5" fill="#2e5a3f" stroke="#1d3d2a" stroke-width="1.5"/>
<text class="node-label" x="89.918" y="86.92857142857143" text-anchor="middle">ベネディクト会</text>
<text class="node-date" x="89.918" y="123.92857142857143" text-anchor="middle">529-</text>
<line x1="178.49599999999998" y1="194.28571428571428" x2="1213.977358490566" y2="194.28571428571428" stroke="#2e5a3f" stroke-width="2" opacity="0.6"/>
<text x="1216.977358490566" y="198.28571428571428" font-size="10" fill="#2e5a3f">▶</text>
<circle cx="178.49599999999998" cy="184.28571428571428" r="7.5" fill="#2e5a3f" stroke="#1d3d2a" stroke-width="1.5"/>
<text class="node-label" x="178.49599999999998" y="172.78571428571428" text-anchor="middle">比叡山延暦寺</text>
<text class="node-date" x="178.49599999999998" y="203.78571428571428" text-anchor="middle">788-</text>
<line x1="220.22" y1="111.42857142857143" x2="858.6415094339624" y2="111.42857142857143" stroke="#999" stroke-width="2" opacity="0.5"/>
<circle cx="220.22" cy="101.42857142857143" r="9.0" fill="#b07256" stroke="#7a4a3a" stroke-width="1.5"/>
<text class="node-label" x="220.22" y="88.42857142857143" text-anchor="middle">Cluny 修道会</text>
<text class="node-date" x="220.22" y="122.42857142857143" text-anchor="middle">910-1790</text>
<line x1="281.096" y1="277.14285714285717" x2="1213.977358490566" y2="277.14285714285717" stroke="#2e5a3f" stroke-width="2" opacity="0.6"/>
<text x="1216.977358490566" y="281.14285714285717" font-size="10" fill="#2e5a3f">▶</text>
<circle cx="281.096" cy="267.14285714285717" r="9.0" fill="#2e5a3f" stroke="#1d3d2a" stroke-width="1.5"/>
<text class="node-label" x="281.096" y="254.14285714285717" text-anchor="middle">ボローニャ大学</text>
<text class="node-date" x="281.096" y="288.14285714285717" text-anchor="middle">1088-</text>
<line x1="284.51599999999996" y1="360.0" x2="1213.977358490566" y2="360.0" stroke="#2e5a3f" stroke-width="2" opacity="0.6"/>
<text x="1216.977358490566" y="364.0" font-size="10" fill="#2e5a3f">▶</text>
<circle cx="284.51599999999996" cy="350.0" r="10.5" fill="#2e5a3f" stroke="#1d3d2a" stroke-width="1.5"/>
<text class="node-label" x="284.51599999999996" y="335.5" text-anchor="middle">シトー会</text>
<text class="node-date" x="284.51599999999996" y="372.5" text-anchor="middle">1098-</text>
<line x1="305.378" y1="194.28571428571428" x2="676.4566037735849" y2="194.28571428571428" stroke="#999" stroke-width="2" opacity="0.5"/>
<circle cx="305.378" cy="184.28571428571428" r="7.5" fill="#b07256" stroke="#7a4a3a" stroke-width="1.5"/>
<text class="node-label" x="305.378" y="172.78571428571428" text-anchor="middle">ハンザ同盟</text>
<text class="node-date" x="305.378" y="203.78571428571428" text-anchor="middle">1159-1669</text>
<line x1="400.796" y1="111.42857142857143" x2="530.4075471698113" y2="111.42857142857143" stroke="#999" stroke-width="2" opacity="0.5"/>
<circle cx="400.796" cy="101.42857142857143" r="6.0" fill="#b07256" stroke="#7a4a3a" stroke-width="1.5"/>
<text class="node-label" x="400.796" y="91.42857142857143" text-anchor="middle">インカ帝国</text>
<text class="node-date" x="400.796" y="119.42857142857143" text-anchor="middle">1438-1572</text>
<line x1="528.9018867924528" y1="111.42857142857143" x2="961.0264150943395" y2="111.42857142857143" stroke="#999" stroke-width="2" opacity="0.5"/>
<circle cx="528.9018867924528" cy="101.42857142857143" r="6.0" fill="#b07256" stroke="#7a4a3a" stroke-width="1.5"/>
<text class="node-label" x="528.9018867924528" y="91.42857142857143" text-anchor="middle">ムガル朝マンサブダール制</text>
<text class="node-date" x="528.9018867924528" y="119.42857142857143" text-anchor="middle">1571-1858</text>
<line x1="575.577358490566" y1="194.28571428571428" x2="872.1924528301886" y2="194.28571428571428" stroke="#999" stroke-width="2" opacity="0.5"/>
<circle cx="575.577358490566" cy="184.28571428571428" r="9.0" fill="#b07256" stroke="#7a4a3a" stroke-width="1.5"/>
<text class="node-label" x="575.577358490566" y="171.28571428571428" text-anchor="middle">オランダ東インド会社</text>
<text class="node-date" x="575.577358490566" y="205.28571428571428" text-anchor="middle">1602-1799</text>
<line x1="656.8830188679244" y1="111.42857142857143" x2="1022.7584905660377" y2="111.42857142857143" stroke="#999" stroke-width="2" opacity="0.5"/>
<circle cx="656.8830188679244" cy="101.42857142857143" r="7.5" fill="#c5a050" stroke="#8a7035" stroke-width="1.5"/>
<text class="node-label" x="656.8830188679244" y="89.92857142857143" text-anchor="middle">鴻池家</text>
<text class="node-date" x="656.8830188679244" y="120.92857142857143" text-anchor="middle">1656-1899</text>
<line x1="677.9622641509434" y1="277.14285714285717" x2="1110.0867924528302" y2="277.14285714285717" stroke="#999" stroke-width="2" opacity="0.5"/>
<circle cx="677.9622641509434" cy="267.14285714285717" r="6.0" fill="#c5a050" stroke="#8a7035" stroke-width="1.5"/>
<text class="node-label" x="677.9622641509434" y="257.14285714285717" text-anchor="middle">アシャンティ王国</text>
<text class="node-date" x="677.9622641509434" y="285.14285714285717" text-anchor="middle">1670-1957</text>
<line x1="682.4792452830188" y1="360.0" x2="1213.977358490566" y2="360.0" stroke="#2e5a3f" stroke-width="2" opacity="0.6"/>
<text x="1216.977358490566" y="364.0" font-size="10" fill="#2e5a3f">▶</text>
<circle cx="682.4792452830188" cy="350.0" r="9.0" fill="#2e5a3f" stroke="#1d3d2a" stroke-width="1.5"/>
<text class="node-label" x="682.4792452830188" y="337.0" text-anchor="middle">三井越後屋</text>
<text class="node-date" x="682.4792452830188" y="371.0" text-anchor="middle">1673-</text>
<line x1="1108.5811320754717" y1="111.42857142857143" x2="1213.977358490566" y2="111.42857142857143" stroke="#2e5a3f" stroke-width="2" opacity="0.6"/>
<text x="1216.977358490566" y="115.42857142857143" font-size="10" fill="#2e5a3f">▶</text>
<circle cx="1108.5811320754717" cy="101.42857142857143" r="9.0" fill="#2e5a3f" stroke="#1d3d2a" stroke-width="1.5"/>
<text class="node-label" x="1108.5811320754717" y="88.42857142857143" text-anchor="middle">Mondragón Cor…</text>
<text class="node-date" x="1108.5811320754717" y="122.42857142857143" text-anchor="middle">1956-</text>
<line x1="1149.2339622641507" y1="194.28571428571428" x2="1213.977358490566" y2="194.28571428571428" stroke="#2e5a3f" stroke-width="2" opacity="0.6"/>
<text x="1216.977358490566" y="198.28571428571428" font-size="10" fill="#2e5a3f">▶</text>
<circle cx="1149.2339622641507" cy="184.28571428571428" r="7.5" fill="#2e5a3f" stroke="#1d3d2a" stroke-width="1.5"/>
<text class="node-label" x="1149.2339622641507" y="172.78571428571428" text-anchor="middle">Grameen Bank</text>
<text class="node-date" x="1149.2339622641507" y="203.78571428571428" text-anchor="middle">1983-</text>
<line x1="1179.3471698113206" y1="277.14285714285717" x2="1213.977358490566" y2="277.14285714285717" stroke="#2e5a3f" stroke-width="2" opacity="0.6"/>
<text x="1216.977358490566" y="281.14285714285717" font-size="10" fill="#2e5a3f">▶</text>
<circle cx="1179.3471698113206" cy="267.14285714285717" r="10.5" fill="#2e5a3f" stroke="#1d3d2a" stroke-width="1.5"/>
<text class="node-label" x="1179.3471698113206" y="252.64285714285717" text-anchor="middle">Wikimedia Fou…</text>
<text class="node-date" x="1179.3471698113206" y="289.64285714285717" text-anchor="middle">2003-</text>
<line x1="1185.3698113207547" y1="360.0" x2="1213.977358490566" y2="360.0" stroke="#2e5a3f" stroke-width="2" opacity="0.6"/>
<text x="1216.977358490566" y="364.0" font-size="10" fill="#2e5a3f">▶</text>
<circle cx="1185.3698113207547" cy="350.0" r="7.5" fill="#2e5a3f" stroke="#1d3d2a" stroke-width="1.5"/>
<text class="node-label" x="1185.3698113207547" y="338.5" text-anchor="middle">Linux Foundat…</text>
<text class="node-date" x="1185.3698113207547" y="369.5" text-anchor="middle">2007-</text>
<line x1="1189.8867924528302" y1="442.8571428571429" x2="1213.977358490566" y2="442.8571428571429" stroke="#2e5a3f" stroke-width="2" opacity="0.6"/>
<text x="1216.977358490566" y="446.8571428571429" font-size="10" fill="#2e5a3f">▶</text>
<circle cx="1189.8867924528302" cy="432.8571428571429" r="6.0" fill="#2e5a3f" stroke="#1d3d2a" stroke-width="1.5"/>
<text class="node-label" x="1189.8867924528302" y="422.8571428571429" text-anchor="middle">Hadza バンド</text>
<text class="node-date" x="1189.8867924528302" y="450.8571428571429" text-anchor="middle">2010-</text>
<line x1="1200.4264150943395" y1="525.7142857142858" x2="1213.977358490566" y2="525.7142857142858" stroke="#2e5a3f" stroke-width="2" opacity="0.6"/>
<text x="1216.977358490566" y="529.7142857142858" font-size="10" fill="#2e5a3f">▶</text>
<circle cx="1200.4264150943395" cy="515.7142857142858" r="9.0" fill="#2e5a3f" stroke="#1d3d2a" stroke-width="1.5"/>
<text class="node-label" x="1200.4264150943395" y="502.7142857142858" text-anchor="middle">MakerDAO</text>
<text class="node-date" x="1200.4264150943395" y="536.7142857142858" text-anchor="middle">2017-</text>
<text x="80" y="24" font-size="13" font-weight="700" fill="#1a1a1a">系譜ネットワーク (18 ノード × 13 エッジ)</text>
<line x1="80" y1="46" x2="104" y2="46" stroke="#2e5a3f" stroke-width="2" stroke-dasharray=""/>
<text x="110" y="50" font-size="10.5" fill="#444">継承</text>
<line x1="225" y1="46" x2="249" y2="46" stroke="#b07256" stroke-width="2" stroke-dasharray="6 3"/>
<text x="255" y="50" font-size="10.5" fill="#444">分派</text>
<line x1="370" y1="46" x2="394" y2="46" stroke="#4a7a8c" stroke-width="2" stroke-dasharray="4 3"/>
<text x="400" y="50" font-size="10.5" fill="#444">知識伝達</text>
<line x1="515" y1="46" x2="539" y2="46" stroke="#8a70a0" stroke-width="2" stroke-dasharray="3 3"/>
<text x="545" y="50" font-size="10.5" fill="#444">模倣的同型化</text>
<line x1="660" y1="46" x2="684" y2="46" stroke="#c66060" stroke-width="2" stroke-dasharray="8 4"/>
<text x="690" y="50" font-size="10.5" fill="#444">競争</text>
<text x="982" y="28" font-size="10.5" fill="#444">状態</text>
<circle cx="1000" cy="24" r="6" fill="#2e5a3f" stroke="#000" stroke-width="0.5" opacity="0.85"/>
<text x="1010" y="28" font-size="9.5" fill="#444">active</text>
<circle cx="1065" cy="24" r="6" fill="#c5a050" stroke="#000" stroke-width="0.5" opacity="0.85"/>
<text x="1075" y="28" font-size="9.5" fill="#444">transformed</text>
<circle cx="1130" cy="24" r="6" fill="#b07256" stroke="#000" stroke-width="0.5" opacity="0.85"/>
<text x="1140" y="28" font-size="9.5" fill="#444">extinct</text>
<circle cx="1195" cy="24" r="6" fill="#8a8a8a" stroke="#000" stroke-width="0.5" opacity="0.85"/>
<text x="1205" y="28" font-size="9.5" fill="#444">unknown</text>
</svg>