<svg xmlns="http://www.w3.org/2000/svg" viewBox="0 0 1400 820" font-family="-apple-system,BlinkMacSystemFont,&quot;Helvetica Neue&quot;,&quot;Hiragino Sans&quot;,&quot;Yu Gothic&quot;,sans-serif">
<style>
text { font-size: 11px; }
.bg { fill: #fbfaf6; }
.title { font-size: 15px; font-weight: 700; fill: #1a1a1a; }
.subtitle { font-size: 11px; fill: #555; }
.case-label { font-size: 11px; fill: #1a1a1a; }
.case-meta { font-size: 9.5px; fill: #6b6b6b; font-family: ui-monospace,SFMono-Regular,Menlo,monospace; }
.year-tick { font-size: 9.5px; fill: #666; font-family: ui-monospace,SFMono-Regular,Menlo,monospace; }
.era-label { font-size: 10.5px; fill: #8a7d6a; }
.legend-text { font-size: 10px; fill: #444; }
.legend-head { font-size: 10.5px; font-weight: 600; fill: #1a1a1a; }
.row-stripe { fill: #00000005; }
@media (prefers-color-scheme: dark) {
  .bg { fill: #14161a; }
  .title { fill: #ececec; }
  .subtitle { fill: #b0b0b0; }
  .case-label { fill: #e6e6e6; }
  .case-meta { fill: #a8a8a8; }
  .year-tick { fill: #aaa; }
  .era-label { fill: #b8a98e; }
  .legend-text { fill: #c8c8c8; }
  .legend-head { fill: #ececec; }
  .row-stripe { fill: #ffffff09; }
  .era-band { opacity: 0.18 !important; }
  .axis-line { stroke: #555 !important; }
  .grid-line { stroke: #2c2f36 !important; }
}
</style>
<rect class="bg" width="1400" height="820"/>
<text class="title" x="230" y="28">18 組織ライフサイクル・タイムライン (BC3000 — 2030)</text>
<text class="subtitle" x="230" y="46">横軸: 年代 (古代圧縮 piecewise) / 縦軸: start_date 順 / バー色=status / dot 色=VSR ラベル</text>
<rect class="era-band" x="230.0" y="68" width="166.5" height="682" fill="#f0ece0" opacity="0.55"/>
<text class="era-label" x="313.2" y="64" text-anchor="middle">先史・古代初期</text>
<rect class="era-band" x="396.5" y="68" width="99.9" height="682" fill="#ebe5d3" opacity="0.55"/>
<text class="era-label" x="446.4" y="64" text-anchor="middle">古代</text>
<rect class="era-band" x="496.4" y="68" width="233.1" height="682" fill="#f5efe8" opacity="0.55"/>
<text class="era-label" x="613.0" y="64" text-anchor="middle">中世</text>
<rect class="era-band" x="729.5" y="68" width="188.7" height="682" fill="#ebe1d6" opacity="0.55"/>
<text class="era-label" x="823.9" y="64" text-anchor="middle">近世</text>
<rect class="era-band" x="918.2" y="68" width="177.6" height="682" fill="#f0e8d8" opacity="0.55"/>
<text class="era-label" x="1007.0" y="64" text-anchor="middle">近代</text>
<rect class="era-band" x="1095.8" y="68" width="244.2" height="682" fill="#e8e8e0" opacity="0.55"/>
<text class="era-label" x="1217.9" y="64" text-anchor="middle">現代</text>
<rect class="row-stripe" x="230" y="80.0" width="1110" height="37.2"/>
<rect class="row-stripe" x="230" y="154.4" width="1110" height="37.2"/>
<rect class="row-stripe" x="230" y="228.9" width="1110" height="37.2"/>
<rect class="row-stripe" x="230" y="303.3" width="1110" height="37.2"/>
<rect class="row-stripe" x="230" y="377.8" width="1110" height="37.2"/>
<rect class="row-stripe" x="230" y="452.2" width="1110" height="37.2"/>
<rect class="row-stripe" x="230" y="526.7" width="1110" height="37.2"/>
<rect class="row-stripe" x="230" y="601.1" width="1110" height="37.2"/>
<rect class="row-stripe" x="230" y="675.6" width="1110" height="37.2"/>
<line class="axis-line" x1="230" y1="764" x2="1340" y2="764" stroke="#999" stroke-width="1"/>
<line class="grid-line" x1="230.0" y1="68" x2="230.0" y2="750" stroke="#e5e1d6" stroke-width="0.7" stroke-dasharray="2 4"/>
<line class="axis-line" x1="230.0" y1="760" x2="230.0" y2="768" stroke="#999" stroke-width="1"/>
<text class="year-tick" x="230.0" y="780" text-anchor="middle">BC3000</text>
<line class="grid-line" x1="363.2" y1="68" x2="363.2" y2="750" stroke="#e5e1d6" stroke-width="0.7" stroke-dasharray="2 4"/>
<line class="axis-line" x1="363.2" y1="760" x2="363.2" y2="768" stroke="#999" stroke-width="1"/>
<text class="year-tick" x="363.2" y="780" text-anchor="middle">BC1000</text>
<line class="grid-line" x1="396.5" y1="68" x2="396.5" y2="750" stroke="#e5e1d6" stroke-width="0.7" stroke-dasharray="2 4"/>
<line class="axis-line" x1="396.5" y1="760" x2="396.5" y2="768" stroke="#999" stroke-width="1"/>
<text class="year-tick" x="396.5" y="780" text-anchor="middle">BC500</text>
<line class="grid-line" x1="429.8" y1="68" x2="429.8" y2="750" stroke="#e5e1d6" stroke-width="0.7" stroke-dasharray="2 4"/>
<line class="axis-line" x1="429.8" y1="760" x2="429.8" y2="768" stroke="#999" stroke-width="1"/>
<text class="year-tick" x="429.8" y="780" text-anchor="middle">0</text>
<line class="grid-line" x1="496.4" y1="68" x2="496.4" y2="750" stroke="#e5e1d6" stroke-width="0.7" stroke-dasharray="2 4"/>
<line class="axis-line" x1="496.4" y1="760" x2="496.4" y2="768" stroke="#999" stroke-width="1"/>
<text class="year-tick" x="496.4" y="780" text-anchor="middle">500</text>
<line class="grid-line" x1="563.0" y1="68" x2="563.0" y2="750" stroke="#e5e1d6" stroke-width="0.7" stroke-dasharray="2 4"/>
<line class="axis-line" x1="563.0" y1="760" x2="563.0" y2="768" stroke="#999" stroke-width="1"/>
<text class="year-tick" x="563.0" y="780" text-anchor="middle">1000</text>
<line class="grid-line" x1="729.5" y1="68" x2="729.5" y2="750" stroke="#e5e1d6" stroke-width="0.7" stroke-dasharray="2 4"/>
<line class="axis-line" x1="729.5" y1="760" x2="729.5" y2="768" stroke="#999" stroke-width="1"/>
<text class="year-tick" x="729.5" y="780" text-anchor="middle">1500</text>
<line class="grid-line" x1="855.3" y1="68" x2="855.3" y2="750" stroke="#e5e1d6" stroke-width="0.7" stroke-dasharray="2 4"/>
<line class="axis-line" x1="855.3" y1="760" x2="855.3" y2="768" stroke="#999" stroke-width="1"/>
<text class="year-tick" x="855.3" y="780" text-anchor="middle">1700</text>
<line class="grid-line" x1="1040.7" y1="68" x2="1040.7" y2="750" stroke="#e5e1d6" stroke-width="0.7" stroke-dasharray="2 4"/>
<line class="axis-line" x1="1040.7" y1="760" x2="1040.7" y2="768" stroke="#999" stroke-width="1"/>
<text class="year-tick" x="1040.7" y="780" text-anchor="middle">1900</text>
<line class="grid-line" x1="1110.2" y1="68" x2="1110.2" y2="750" stroke="#e5e1d6" stroke-width="0.7" stroke-dasharray="2 4"/>
<line class="axis-line" x1="1110.2" y1="760" x2="1110.2" y2="768" stroke="#999" stroke-width="1"/>
<text class="year-tick" x="1110.2" y="780" text-anchor="middle">1950</text>
<line class="grid-line" x1="1253.8" y1="68" x2="1253.8" y2="750" stroke="#e5e1d6" stroke-width="0.7" stroke-dasharray="2 4"/>
<line class="axis-line" x1="1253.8" y1="760" x2="1253.8" y2="768" stroke="#999" stroke-width="1"/>
<text class="year-tick" x="1253.8" y="780" text-anchor="middle">2000</text>
<line class="grid-line" x1="1328.5" y1="68" x2="1328.5" y2="750" stroke="#e5e1d6" stroke-width="0.7" stroke-dasharray="2 4"/>
<line class="axis-line" x1="1328.5" y1="760" x2="1328.5" y2="768" stroke="#999" stroke-width="1"/>
<text class="year-tick" x="1328.5" y="780" text-anchor="middle">2026</text>
<rect x="230.0" y="94.1" width="1098.5" height="9" rx="3" ry="3" fill="#3b8f5f" opacity="0.78" stroke="#3b8f5f" stroke-width="0.5"/>
<polygon points="1328.5,94.1 1336.5,98.6 1328.5,103.1" fill="#3b8f5f" opacity="0.85"/>
<line x1="230" y1="98.6" x2="230.0" y2="98.6" stroke="#3b8f5f" stroke-width="1.2" stroke-dasharray="2 3" opacity="0.45"/>
<text class="case-label" x="218" y="99.6" text-anchor="end">Hadza バンド</text>
<text class="case-meta" x="218" y="111.6" text-anchor="end">BC3000–</text>
<rect x="500.3" y="131.3" width="828.2" height="9" rx="3" ry="3" fill="#3b8f5f" opacity="0.78" stroke="#3b8f5f" stroke-width="0.5"/>
<polygon points="1328.5,131.3 1336.5,135.8 1328.5,140.3" fill="#3b8f5f" opacity="0.85"/>
<text class="case-label" x="218" y="136.8" text-anchor="end">ベネディクト会</text>
<text class="case-meta" x="218" y="148.8" text-anchor="end">529–</text>
<polygon points="500.3,128.8 505.3,135.8 500.3,142.8 495.3,135.8" fill="#4aa3df" stroke="#1a1a1a" stroke-width="0.5"/>
<title>529 founding [variation] — ベネディクトゥスが Monte Cassino に修道院を創立</title>
<rect x="534.8" y="168.6" width="793.7" height="9" rx="3" ry="3" fill="#3b8f5f" opacity="0.78" stroke="#3b8f5f" stroke-width="0.5"/>
<polygon points="1328.5,168.6 1336.5,173.1 1328.5,177.6" fill="#3b8f5f" opacity="0.85"/>
<text class="case-label" x="218" y="174.1" text-anchor="end">比叡山延暦寺</text>
<text class="case-meta" x="218" y="186.1" text-anchor="end">788–</text>
<polygon points="534.8,166.1 539.8,173.1 534.8,180.1 529.8,173.1" fill="#4aa3df" stroke="#1a1a1a" stroke-width="0.5"/>
<title>788 founding [variation] — 最澄が比叡山に一乗止観院を創建</title>
<circle cx="774.2" cy="173.1" r="6" fill="none" stroke="#f0ad4e" stroke-width="1.4" stroke-dasharray="2 1.5"/>
<circle cx="774.2" cy="173.1" r="2" fill="#f0ad4e"/>
<title>1571 crisis [struggle] — 織田信長の比叡山焼き討ち、僧兵・住人の大量虐殺</title>
<polygon points="782.3,167.1 787.8,178.1 776.8,178.1" fill="#5cb85c" stroke="#1a1a1a" stroke-width="0.5"/>
<title>1584 revival [retention] — 豊臣秀吉の保護下で再興開始</title>
<rect x="551.0" y="205.8" width="360.9" height="9" rx="3" ry="3" fill="#b07256" opacity="0.78" stroke="#b07256" stroke-width="0.5"/>
<text class="case-label" x="218" y="211.3" text-anchor="end">Cluny 修道会</text>
<text class="case-meta" x="218" y="223.3" text-anchor="end">910–1790</text>
<polygon points="551.0,203.3 556.0,210.3 551.0,217.3 546.0,210.3" fill="#4aa3df" stroke="#1a1a1a" stroke-width="0.5"/>
<title>910 founding [variation] — William I の寄進、教皇直属の修道院として創立</title>
<polygon points="590.1,205.3 601.1,205.3 595.6,216.3" fill="#4aa3df" stroke="#1a1a1a" stroke-width="0.5"/>
<title>1098 split [variation] — Robert of Molesme が Cluny を批判して Cîteaux 修道院を創立 — 修道院改革の最重要 schism</title>
<line x1="906.9" y1="205.3" x2="916.9" y2="215.3" stroke="#d9534f" stroke-width="2.2"/>
<line x1="906.9" y1="215.3" x2="916.9" y2="205.3" stroke="#d9534f" stroke-width="2.2"/>
<title>1790 dissolution [selection] — フランス革命で Constituent Assembly が修道会を世俗化、Cluny も 1793 年に解散</title>
<rect x="592.3" y="243.0" width="736.2" height="9" rx="3" ry="3" fill="#3b8f5f" opacity="0.78" stroke="#3b8f5f" stroke-width="0.5"/>
<polygon points="1328.5,243.0 1336.5,247.5 1328.5,252.0" fill="#3b8f5f" opacity="0.85"/>
<text class="case-label" x="218" y="248.5" text-anchor="end">ボローニャ大学</text>
<text class="case-meta" x="218" y="260.5" text-anchor="end">1088–</text>
<polygon points="592.3,240.5 597.3,247.5 592.3,254.5 587.3,247.5" fill="#4aa3df" stroke="#1a1a1a" stroke-width="0.5"/>
<title>1088 founding [variation] — 伝統的な創立年。学生組合の自然形成</title>
<rect x="611.1" y="243.0" width="9" height="9" fill="#5cb85c" stroke="#1a1a1a" stroke-width="0.5"/>
<title>1158 governance_change [retention] — Frederick I が Authentica Habita を発布、大学に普遍的特権</title>
<rect x="595.6" y="280.2" width="732.9" height="9" rx="3" ry="3" fill="#3b8f5f" opacity="0.78" stroke="#3b8f5f" stroke-width="0.5"/>
<polygon points="1328.5,280.2 1336.5,284.7 1328.5,289.2" fill="#3b8f5f" opacity="0.85"/>
<text class="case-label" x="218" y="285.7" text-anchor="end">シトー会</text>
<text class="case-meta" x="218" y="297.7" text-anchor="end">1098–</text>
<polygon points="590.1,279.7 601.1,279.7 595.6,290.7" fill="#4aa3df" stroke="#1a1a1a" stroke-width="0.5"/>
<title>1098 split [variation] — Robert of Molesme が Cluny を批判して Cîteaux 修道院を創立 — 修道院改革の最重要 schism</title>
<rect x="615.9" y="317.4" width="219.9" height="9" rx="3" ry="3" fill="#b07256" opacity="0.78" stroke="#b07256" stroke-width="0.5"/>
<text class="case-label" x="218" y="322.9" text-anchor="end">ハンザ同盟</text>
<text class="case-meta" x="218" y="334.9" text-anchor="end">1159–1669</text>
<line x1="830.8" y1="316.9" x2="840.8" y2="326.9" stroke="#d9534f" stroke-width="2.2"/>
<line x1="830.8" y1="326.9" x2="840.8" y2="316.9" stroke="#d9534f" stroke-width="2.2"/>
<title>1669 dissolution [selection] — 最後のハンザ・ディエット開催、事実上の終焉</title>
<rect x="708.9" y="354.7" width="65.9" height="9" rx="3" ry="3" fill="#b07256" opacity="0.78" stroke="#b07256" stroke-width="0.5"/>
<text class="case-label" x="218" y="360.2" text-anchor="end">インカ帝国</text>
<text class="case-meta" x="218" y="372.2" text-anchor="end">1438–1572</text>
<polygon points="708.9,352.2 713.9,359.2 708.9,366.2 703.9,359.2" fill="#4aa3df" stroke="#1a1a1a" stroke-width="0.5"/>
<title>1438 founding [variation] — Pachacuti の即位 + Chanca 戦勝で帝国化開始</title>
<line x1="769.8" y1="354.2" x2="779.8" y2="364.2" stroke="#d9534f" stroke-width="2.2"/>
<line x1="769.8" y1="364.2" x2="779.8" y2="354.2" stroke="#d9534f" stroke-width="2.2"/>
<title>1572 dissolution [selection] — 最後のインカ Tupac Amaru I がスペイン人によって Cuzco で処刑</title>
<rect x="774.2" y="391.9" width="215.1" height="9" rx="3" ry="3" fill="#b07256" opacity="0.78" stroke="#b07256" stroke-width="0.5"/>
<text class="case-label" x="218" y="397.4" text-anchor="end">ムガル朝マンサブダール制</text>
<text class="case-meta" x="218" y="409.4" text-anchor="end">1571–1858</text>
<polygon points="774.2,389.4 779.2,396.4 774.2,403.4 769.2,396.4" fill="#4aa3df" stroke="#1a1a1a" stroke-width="0.5"/>
<title>1571 founding [variation] — アクバル帝の改革により mansabdari 制度が体系化</title>
<line x1="984.2" y1="391.4" x2="994.2" y2="401.4" stroke="#d9534f" stroke-width="2.2"/>
<line x1="984.2" y1="401.4" x2="994.2" y2="391.4" stroke="#d9534f" stroke-width="2.2"/>
<title>1858 dissolution [selection] — セポイの乱後、英領インド統治法によりムガル朝公式廃止</title>
<rect x="793.7" y="429.1" width="123.9" height="9" rx="3" ry="3" fill="#b07256" opacity="0.78" stroke="#b07256" stroke-width="0.5"/>
<text class="case-label" x="218" y="434.6" text-anchor="end">オランダ東インド会社</text>
<text class="case-meta" x="218" y="446.6" text-anchor="end">1602–1799</text>
<polygon points="793.7,426.6 798.7,433.6 793.7,440.6 788.7,433.6" fill="#4aa3df" stroke="#1a1a1a" stroke-width="0.5"/>
<title>1602 founding [variation] — オランダ国会が VOC に 21 年間の独占特許を付与</title>
<line x1="912.6" y1="428.6" x2="922.6" y2="438.6" stroke="#d9534f" stroke-width="2.2"/>
<line x1="912.6" y1="438.6" x2="922.6" y2="428.6" stroke="#d9534f" stroke-width="2.2"/>
<title>1799 dissolution [selection] — VOC が解散、債務をオランダ政府が引き受け</title>
<rect x="827.6" y="466.3" width="211.8" height="9" rx="3" ry="3" fill="#c5a050" opacity="0.78" stroke="#c5a050" stroke-width="0.5"/>
<text class="case-label" x="218" y="471.8" text-anchor="end">鴻池家</text>
<text class="case-meta" x="218" y="483.8" text-anchor="end">1656–1899</text>
<polygon points="827.6,463.8 832.6,470.8 827.6,477.8 822.6,470.8" fill="#4aa3df" stroke="#1a1a1a" stroke-width="0.5"/>
<title>1656 founding [variation] — 鴻池善右衛門 正成が大坂今橋に両替店開業</title>
<rect x="1035.0" y="466.3" width="9" height="9" fill="#5cb85c" stroke="#1a1a1a" stroke-width="0.5"/>
<title>1899 reorganization [retention] — 鴻池銀行を株式会社として設立、家業から KK へ</title>
<rect x="836.4" y="503.6" width="293.8" height="9" rx="3" ry="3" fill="#c5a050" opacity="0.78" stroke="#c5a050" stroke-width="0.5"/>
<text class="case-label" x="218" y="509.1" text-anchor="end">アシャンティ王国</text>
<text class="case-meta" x="218" y="521.1" text-anchor="end">1670–1957</text>
<polygon points="855.9,501.1 860.9,508.1 855.9,515.1 850.9,508.1" fill="#4aa3df" stroke="#1a1a1a" stroke-width="0.5"/>
<title>1701 founding [variation] — Denkyira 戦勝、Osei Tutu が初代 Asantehene として帝国を確立</title>
<circle cx="1035.8" cy="508.1" r="6" fill="none" stroke="#f0ad4e" stroke-width="1.4" stroke-dasharray="2 1.5"/>
<circle cx="1035.8" cy="508.1" r="2" fill="#f0ad4e"/>
<title>1896 crisis [struggle] — 第四次 Anglo-Ashanti 戦争で英国が Asantehene Prempeh I を流刑、保護領化</title>
<polygon points="1130.3,502.1 1135.8,513.1 1124.8,513.1" fill="#5cb85c" stroke="#1a1a1a" stroke-width="0.5"/>
<title>1957 revival [retention] — ガーナ独立、Asante kingdom が文化的存在として復元</title>
<rect x="838.3" y="540.8" width="490.2" height="9" rx="3" ry="3" fill="#3b8f5f" opacity="0.78" stroke="#3b8f5f" stroke-width="0.5"/>
<polygon points="1328.5,540.8 1336.5,545.3 1328.5,549.8" fill="#3b8f5f" opacity="0.85"/>
<text class="case-label" x="218" y="546.3" text-anchor="end">三井越後屋</text>
<text class="case-meta" x="218" y="558.3" text-anchor="end">1673–</text>
<polygon points="838.3,538.3 843.3,545.3 838.3,552.3 833.3,545.3" fill="#4aa3df" stroke="#1a1a1a" stroke-width="0.5"/>
<title>1673 founding [variation] — 三井高利が江戸日本橋に呉服店「越後屋」を出店</title>
<rect x="1047.2" y="540.8" width="9" height="9" fill="#5cb85c" stroke="#1a1a1a" stroke-width="0.5"/>
<title>1909 reorganization [retention] — 三井合名会社設立、財閥としての法人化</title>
<line x1="1096.5" y1="540.3" x2="1106.5" y2="550.3" stroke="#d9534f" stroke-width="2.2"/>
<line x1="1096.5" y1="550.3" x2="1106.5" y2="540.3" stroke="#d9534f" stroke-width="2.2"/>
<title>1947 dissolution [selection] — GHQ により三井財閥解体、持株会社禁止</title>
<polygon points="1124.5,539.3 1130.0,550.3 1119.0,550.3" fill="#5cb85c" stroke="#1a1a1a" stroke-width="0.5"/>
<title>1955 revival [retention] — 三井グループとして再編 (相互持合・社長会型)</title>
<rect x="1127.4" y="578.0" width="201.1" height="9" rx="3" ry="3" fill="#3b8f5f" opacity="0.78" stroke="#3b8f5f" stroke-width="0.5"/>
<polygon points="1328.5,578.0 1336.5,582.5 1328.5,587.0" fill="#3b8f5f" opacity="0.85"/>
<text class="case-label" x="218" y="583.5" text-anchor="end">Mondragón Corporación Cooperativa</text>
<text class="case-meta" x="218" y="595.5" text-anchor="end">1956–</text>
<polygon points="1127.4,575.5 1132.4,582.5 1127.4,589.5 1122.4,582.5" fill="#4aa3df" stroke="#1a1a1a" stroke-width="0.5"/>
<title>1956 founding [variation] — ULGOR (現 Fagor) を 5 人の弟子が設立</title>
<circle cx="1291.2" cy="582.5" r="6" fill="none" stroke="#f0ad4e" stroke-width="1.4" stroke-dasharray="2 1.5"/>
<circle cx="1291.2" cy="582.5" r="2" fill="#f0ad4e"/>
<title>2013 crisis [struggle] — Fagor Electrodomésticos が破産申請、Mondragón 史上最大の危機</title>
<rect x="1205.0" y="615.2" width="123.5" height="9" rx="3" ry="3" fill="#3b8f5f" opacity="0.78" stroke="#3b8f5f" stroke-width="0.5"/>
<polygon points="1328.5,615.2 1336.5,619.7 1328.5,624.2" fill="#3b8f5f" opacity="0.85"/>
<text class="case-label" x="218" y="620.7" text-anchor="end">Grameen Bank</text>
<text class="case-meta" x="218" y="632.7" text-anchor="end">1983–</text>
<polygon points="1205.0,612.7 1210.0,619.7 1205.0,626.7 1200.0,619.7" fill="#5cb85c" stroke="#1a1a1a" stroke-width="0.5"/>
<title>1983 founding [retention] — Bangladesh 政府が Grameen Bank を独立銀行として認可</title>
<rect x="1266.5" y="615.2" width="9" height="9" fill="#5cb85c" stroke="#1a1a1a" stroke-width="0.5"/>
<title>2006 reform [retention] — Yunus と Grameen Bank が共同でノーベル平和賞受賞</title>
<rect x="1262.4" y="652.4" width="66.1" height="9" rx="3" ry="3" fill="#3b8f5f" opacity="0.78" stroke="#3b8f5f" stroke-width="0.5"/>
<polygon points="1328.5,652.4 1336.5,656.9 1328.5,661.4" fill="#3b8f5f" opacity="0.85"/>
<text class="case-label" x="218" y="657.9" text-anchor="end">Wikimedia Foundation</text>
<text class="case-meta" x="218" y="669.9" text-anchor="end">2003–</text>
<polygon points="1262.4,649.9 1267.4,656.9 1262.4,663.9 1257.4,656.9" fill="#4aa3df" stroke="#1a1a1a" stroke-width="0.5"/>
<title>2003 founding [variation] — Wikimedia Foundation を Florida 州で 501(c)(3) として法人化</title>
<rect x="1273.9" y="689.7" width="54.6" height="9" rx="3" ry="3" fill="#3b8f5f" opacity="0.78" stroke="#3b8f5f" stroke-width="0.5"/>
<polygon points="1328.5,689.7 1336.5,694.2 1328.5,698.7" fill="#3b8f5f" opacity="0.85"/>
<text class="case-label" x="218" y="695.2" text-anchor="end">Linux Foundation</text>
<text class="case-meta" x="218" y="707.2" text-anchor="end">2007–</text>
<circle cx="1271.4" cy="694.2" r="4" fill="#5cb85c" opacity="0.85" stroke="#1a1a1a" stroke-width="0.4"/>
<circle cx="1276.4" cy="694.2" r="4" fill="#5cb85c" opacity="0.85" stroke="#1a1a1a" stroke-width="0.4"/>
<title>2007 merger [retention] — OSDL と FSG が合併し Linux Foundation 設立</title>
<rect x="1302.7" y="726.9" width="25.9" height="9" rx="3" ry="3" fill="#3b8f5f" opacity="0.78" stroke="#3b8f5f" stroke-width="0.5"/>
<polygon points="1328.5,726.9 1336.5,731.4 1328.5,735.9" fill="#3b8f5f" opacity="0.85"/>
<text class="case-label" x="218" y="732.4" text-anchor="end">MakerDAO</text>
<text class="case-meta" x="218" y="744.4" text-anchor="end">2017–</text>
<polygon points="1302.7,724.4 1307.7,731.4 1302.7,738.4 1297.7,731.4" fill="#4aa3df" stroke="#1a1a1a" stroke-width="0.5"/>
<title>2017 founding [variation] — Maker / DAI smart contract をイーサリアムメインネットへデプロイ</title>
<rect x="1309.6" y="726.9" width="9" height="9" fill="#5cb85c" stroke="#1a1a1a" stroke-width="0.5"/>
<title>2021 governance_change [retention] — Maker Foundation が解体を発表、完全 DAO 化</title>
<text class="legend-head" x="230" y="790">バー (status):</text>
<rect x="330" y="782" width="14" height="9" rx="2" ry="2" fill="#3b8f5f" opacity="0.78"/>
<text class="legend-text" x="348" y="790">active</text>
<rect x="404" y="782" width="14" height="9" rx="2" ry="2" fill="#b07256" opacity="0.78"/>
<text class="legend-text" x="422" y="790">extinct</text>
<rect x="484" y="782" width="14" height="9" rx="2" ry="2" fill="#c5a050" opacity="0.78"/>
<text class="legend-text" x="502" y="790">transformed</text>
<rect x="588" y="782" width="14" height="9" rx="2" ry="2" fill="#5a8a4a" opacity="0.78"/>
<text class="legend-text" x="606" y="790">merged</text>
<rect x="662" y="782" width="14" height="9" rx="2" ry="2" fill="#8a70a0" opacity="0.78"/>
<text class="legend-text" x="680" y="790">split</text>
<rect x="730" y="782" width="14" height="9" rx="2" ry="2" fill="#888888" opacity="0.78"/>
<text class="legend-text" x="748" y="790">unknown</text>
<text class="legend-head" x="960" y="28">dot 色 (VSR):</text>
<circle cx="1053" cy="25" r="5" fill="#4aa3df" stroke="#1a1a1a" stroke-width="0.4"/>
<text class="legend-text" x="1062" y="28">variation</text>
<circle cx="1138" cy="25" r="5" fill="#d9534f" stroke="#1a1a1a" stroke-width="0.4"/>
<text class="legend-text" x="1147" y="28">selection</text>
<circle cx="1223" cy="25" r="5" fill="#5cb85c" stroke="#1a1a1a" stroke-width="0.4"/>
<text class="legend-text" x="1232" y="28">retention</text>
<circle cx="1308" cy="25" r="5" fill="#f0ad4e" stroke="#1a1a1a" stroke-width="0.4"/>
<text class="legend-text" x="1317" y="28">struggle</text>
<text class="legend-head" x="620" y="50">dot 形 (event):</text>
<text class="legend-text" x="712" y="50">◆ founding</text>
<text class="legend-text" x="788.0" y="50">× dissolution</text>
<text class="legend-text" x="883.2" y="50">■ reorg/reform</text>
<text class="legend-text" x="984.8000000000001" y="50">▲ revival</text>
<text class="legend-text" x="1054.4" y="50">▼ split/schism</text>
<text class="legend-text" x="1156.0" y="50">◌ crisis</text>
<text class="legend-text" x="1219.2" y="50">◎ merger</text>
</svg>