<svg xmlns="http://www.w3.org/2000/svg" viewBox="0 0 1400 820" font-family="-apple-system,BlinkMacSystemFont,&quot;Helvetica Neue&quot;,&quot;Hiragino Sans&quot;,&quot;Yu Gothic&quot;,sans-serif">
<style>
text { font-size: 11px; }
.bg { fill: #fbfaf6; }
.title { font-size: 15px; font-weight: 700; fill: #1a1a1a; }
.subtitle { font-size: 11px; fill: #555; }
.case-label { font-size: 11px; fill: #1a1a1a; }
.case-meta { font-size: 9.5px; fill: #6b6b6b; font-family: ui-monospace,SFMono-Regular,Menlo,monospace; }
.year-tick { font-size: 9.5px; fill: #666; font-family: ui-monospace,SFMono-Regular,Menlo,monospace; }
.era-label { font-size: 10.5px; fill: #8a7d6a; }
.legend-text { font-size: 10px; fill: #444; }
.legend-head { font-size: 10.5px; font-weight: 600; fill: #1a1a1a; }
.row-stripe { fill: #00000005; }
@media (prefers-color-scheme: dark) {
  .bg { fill: #14161a; }
  .title { fill: #ececec; }
  .subtitle { fill: #b0b0b0; }
  .case-label { fill: #e6e6e6; }
  .case-meta { fill: #a8a8a8; }
  .year-tick { fill: #aaa; }
  .era-label { fill: #b8a98e; }
  .legend-text { fill: #c8c8c8; }
  .legend-head { fill: #ececec; }
  .row-stripe { fill: #ffffff09; }
  .era-band { opacity: 0.18 !important; }
  .axis-line { stroke: #555 !important; }
  .grid-line { stroke: #2c2f36 !important; }
}
</style>
<rect class="bg" width="1400" height="820"/>
<text class="title" x="230" y="28">18 組織ライフサイクル・タイムライン (BC3000 — 2030)</text>
<text class="subtitle" x="230" y="46">横軸: 年代 (古代圧縮 piecewise) / 縦軸: start_date 順 / バー色=status / dot 色=VSR ラベル</text>
<rect class="era-band" x="230.0" y="68" width="166.5" height="682" fill="#f0ece0" opacity="0.55"/>
<text class="era-label" x="313.2" y="64" text-anchor="middle">先史・古代初期</text>
<rect class="era-band" x="396.5" y="68" width="99.9" height="682" fill="#ebe5d3" opacity="0.55"/>
<text class="era-label" x="446.4" y="64" text-anchor="middle">古代</text>
<rect class="era-band" x="496.4" y="68" width="233.1" height="682" fill="#f5efe8" opacity="0.55"/>
<text class="era-label" x="613.0" y="64" text-anchor="middle">中世</text>
<rect class="era-band" x="729.5" y="68" width="188.7" height="682" fill="#ebe1d6" opacity="0.55"/>
<text class="era-label" x="823.9" y="64" text-anchor="middle">近世</text>
<rect class="era-band" x="918.2" y="68" width="177.6" height="682" fill="#f0e8d8" opacity="0.55"/>
<text class="era-label" x="1007.0" y="64" text-anchor="middle">近代</text>
<rect class="era-band" x="1095.8" y="68" width="244.2" height="682" fill="#e8e8e0" opacity="0.55"/>
<text class="era-label" x="1217.9" y="64" text-anchor="middle">現代</text>
<rect class="row-stripe" x="230" y="80.0" width="1110" height="15.6"/>
<rect class="row-stripe" x="230" y="111.2" width="1110" height="15.6"/>
<rect class="row-stripe" x="230" y="142.3" width="1110" height="15.6"/>
<rect class="row-stripe" x="230" y="173.5" width="1110" height="15.6"/>
<rect class="row-stripe" x="230" y="204.7" width="1110" height="15.6"/>
<rect class="row-stripe" x="230" y="235.8" width="1110" height="15.6"/>
<rect class="row-stripe" x="230" y="267.0" width="1110" height="15.6"/>
<rect class="row-stripe" x="230" y="298.1" width="1110" height="15.6"/>
<rect class="row-stripe" x="230" y="329.3" width="1110" height="15.6"/>
<rect class="row-stripe" x="230" y="360.5" width="1110" height="15.6"/>
<rect class="row-stripe" x="230" y="391.6" width="1110" height="15.6"/>
<rect class="row-stripe" x="230" y="422.8" width="1110" height="15.6"/>
<rect class="row-stripe" x="230" y="454.0" width="1110" height="15.6"/>
<rect class="row-stripe" x="230" y="485.1" width="1110" height="15.6"/>
<rect class="row-stripe" x="230" y="516.3" width="1110" height="15.6"/>
<rect class="row-stripe" x="230" y="547.4" width="1110" height="15.6"/>
<rect class="row-stripe" x="230" y="578.6" width="1110" height="15.6"/>
<rect class="row-stripe" x="230" y="609.8" width="1110" height="15.6"/>
<rect class="row-stripe" x="230" y="640.9" width="1110" height="15.6"/>
<rect class="row-stripe" x="230" y="672.1" width="1110" height="15.6"/>
<rect class="row-stripe" x="230" y="703.3" width="1110" height="15.6"/>
<rect class="row-stripe" x="230" y="734.4" width="1110" height="15.6"/>
<line class="axis-line" x1="230" y1="764" x2="1340" y2="764" stroke="#999" stroke-width="1"/>
<line class="grid-line" x1="230.0" y1="68" x2="230.0" y2="750" stroke="#e5e1d6" stroke-width="0.7" stroke-dasharray="2 4"/>
<line class="axis-line" x1="230.0" y1="760" x2="230.0" y2="768" stroke="#999" stroke-width="1"/>
<text class="year-tick" x="230.0" y="780" text-anchor="middle">BC3000</text>
<line class="grid-line" x1="363.2" y1="68" x2="363.2" y2="750" stroke="#e5e1d6" stroke-width="0.7" stroke-dasharray="2 4"/>
<line class="axis-line" x1="363.2" y1="760" x2="363.2" y2="768" stroke="#999" stroke-width="1"/>
<text class="year-tick" x="363.2" y="780" text-anchor="middle">BC1000</text>
<line class="grid-line" x1="396.5" y1="68" x2="396.5" y2="750" stroke="#e5e1d6" stroke-width="0.7" stroke-dasharray="2 4"/>
<line class="axis-line" x1="396.5" y1="760" x2="396.5" y2="768" stroke="#999" stroke-width="1"/>
<text class="year-tick" x="396.5" y="780" text-anchor="middle">BC500</text>
<line class="grid-line" x1="429.8" y1="68" x2="429.8" y2="750" stroke="#e5e1d6" stroke-width="0.7" stroke-dasharray="2 4"/>
<line class="axis-line" x1="429.8" y1="760" x2="429.8" y2="768" stroke="#999" stroke-width="1"/>
<text class="year-tick" x="429.8" y="780" text-anchor="middle">0</text>
<line class="grid-line" x1="496.4" y1="68" x2="496.4" y2="750" stroke="#e5e1d6" stroke-width="0.7" stroke-dasharray="2 4"/>
<line class="axis-line" x1="496.4" y1="760" x2="496.4" y2="768" stroke="#999" stroke-width="1"/>
<text class="year-tick" x="496.4" y="780" text-anchor="middle">500</text>
<line class="grid-line" x1="563.0" y1="68" x2="563.0" y2="750" stroke="#e5e1d6" stroke-width="0.7" stroke-dasharray="2 4"/>
<line class="axis-line" x1="563.0" y1="760" x2="563.0" y2="768" stroke="#999" stroke-width="1"/>
<text class="year-tick" x="563.0" y="780" text-anchor="middle">1000</text>
<line class="grid-line" x1="729.5" y1="68" x2="729.5" y2="750" stroke="#e5e1d6" stroke-width="0.7" stroke-dasharray="2 4"/>
<line class="axis-line" x1="729.5" y1="760" x2="729.5" y2="768" stroke="#999" stroke-width="1"/>
<text class="year-tick" x="729.5" y="780" text-anchor="middle">1500</text>
<line class="grid-line" x1="855.3" y1="68" x2="855.3" y2="750" stroke="#e5e1d6" stroke-width="0.7" stroke-dasharray="2 4"/>
<line class="axis-line" x1="855.3" y1="760" x2="855.3" y2="768" stroke="#999" stroke-width="1"/>
<text class="year-tick" x="855.3" y="780" text-anchor="middle">1700</text>
<line class="grid-line" x1="1040.7" y1="68" x2="1040.7" y2="750" stroke="#e5e1d6" stroke-width="0.7" stroke-dasharray="2 4"/>
<line class="axis-line" x1="1040.7" y1="760" x2="1040.7" y2="768" stroke="#999" stroke-width="1"/>
<text class="year-tick" x="1040.7" y="780" text-anchor="middle">1900</text>
<line class="grid-line" x1="1110.2" y1="68" x2="1110.2" y2="750" stroke="#e5e1d6" stroke-width="0.7" stroke-dasharray="2 4"/>
<line class="axis-line" x1="1110.2" y1="760" x2="1110.2" y2="768" stroke="#999" stroke-width="1"/>
<text class="year-tick" x="1110.2" y="780" text-anchor="middle">1950</text>
<line class="grid-line" x1="1253.8" y1="68" x2="1253.8" y2="750" stroke="#e5e1d6" stroke-width="0.7" stroke-dasharray="2 4"/>
<line class="axis-line" x1="1253.8" y1="760" x2="1253.8" y2="768" stroke="#999" stroke-width="1"/>
<text class="year-tick" x="1253.8" y="780" text-anchor="middle">2000</text>
<line class="grid-line" x1="1328.5" y1="68" x2="1328.5" y2="750" stroke="#e5e1d6" stroke-width="0.7" stroke-dasharray="2 4"/>
<line class="axis-line" x1="1328.5" y1="760" x2="1328.5" y2="768" stroke="#999" stroke-width="1"/>
<text class="year-tick" x="1328.5" y="780" text-anchor="middle">2026</text>
<rect x="230.0" y="83.3" width="1098.5" height="9" rx="3" ry="3" fill="#3b8f5f" opacity="0.78" stroke="#3b8f5f" stroke-width="0.5"/>
<polygon points="1328.5,83.3 1336.5,87.8 1328.5,92.3" fill="#3b8f5f" opacity="0.85"/>
<line x1="230" y1="87.8" x2="230.0" y2="87.8" stroke="#3b8f5f" stroke-width="1.2" stroke-dasharray="2 3" opacity="0.45"/>
<text class="case-label" x="218" y="88.8" text-anchor="end">Hadza バンド</text>
<text class="case-meta" x="218" y="100.8" text-anchor="end">BC3000–</text>
<rect x="230.0" y="98.9" width="1098.5" height="9" rx="3" ry="3" fill="#b07256" opacity="0.78" stroke="#b07256" stroke-width="0.5"/>
<polygon points="1328.5,98.9 1336.5,103.4 1328.5,107.9" fill="#b07256" opacity="0.85"/>
<text class="case-label" x="218" y="104.4" text-anchor="end">ウルク Eanna 神殿</text>
<text class="case-meta" x="218" y="116.4" text-anchor="end">BC3000–</text>
<rect x="230.0" y="114.5" width="1098.5" height="9" rx="3" ry="3" fill="#b07256" opacity="0.78" stroke="#b07256" stroke-width="0.5"/>
<polygon points="1328.5,114.5 1336.5,119.0 1328.5,123.5" fill="#b07256" opacity="0.85"/>
<text class="case-label" x="218" y="120.0" text-anchor="end">エジプト第18王朝の宰相</text>
<text class="case-meta" x="218" y="132.0" text-anchor="end">BC3000–</text>
<rect x="230.0" y="130.0" width="263.2" height="9" rx="3" ry="3" fill="#b07256" opacity="0.78" stroke="#b07256" stroke-width="0.5"/>
<text class="case-label" x="218" y="135.5" text-anchor="end">ローマ軍団</text>
<text class="case-meta" x="218" y="147.5" text-anchor="end">BC3000–476</text>
<line x1="488.2" y1="129.5" x2="498.2" y2="139.5" stroke="#d9534f" stroke-width="2.2"/>
<line x1="488.2" y1="139.5" x2="498.2" y2="129.5" stroke="#d9534f" stroke-width="2.2"/>
<title>476 dissolution [selection] — 西ローマ帝国崩壊により西方の legio 体制が機能停止 (東方では Eastern Roman army へ継続)</title>
<rect x="230.0" y="145.6" width="263.2" height="9" rx="3" ry="3" fill="#b07256" opacity="0.78" stroke="#b07256" stroke-width="0.5"/>
<text class="case-label" x="218" y="151.1" text-anchor="end">ローマの collegia</text>
<text class="case-meta" x="218" y="163.1" text-anchor="end">BC3000–476</text>
<rect x="230.0" y="161.2" width="1098.5" height="9" rx="3" ry="3" fill="#b07256" opacity="0.78" stroke="#b07256" stroke-width="0.5"/>
<polygon points="1328.5,161.2 1336.5,165.7 1328.5,170.2" fill="#b07256" opacity="0.85"/>
<text class="case-label" x="218" y="166.7" text-anchor="end">スパルタ agoge</text>
<text class="case-meta" x="218" y="178.7" text-anchor="end">BC3000–</text>
<rect x="230.0" y="176.8" width="1098.5" height="9" rx="3" ry="3" fill="#3b8f5f" opacity="0.78" stroke="#3b8f5f" stroke-width="0.5"/>
<polygon points="1328.5,176.8 1336.5,181.3 1328.5,185.8" fill="#3b8f5f" opacity="0.85"/>
<text class="case-label" x="218" y="182.3" text-anchor="end">Haudenosaunee Confederacy</text>
<text class="case-meta" x="218" y="194.3" text-anchor="end">BC3000–</text>
<rect x="864.6" y="176.8" width="9" height="9" fill="#5cb85c" stroke="#1a1a1a" stroke-width="0.5"/>
<title>1722 reform [retention] — Tuscarora が南部から移住し連邦に加盟、Five Nations から Six Nations へ</title>
<rect x="500.3" y="192.4" width="828.2" height="9" rx="3" ry="3" fill="#3b8f5f" opacity="0.78" stroke="#3b8f5f" stroke-width="0.5"/>
<polygon points="1328.5,192.4 1336.5,196.9 1328.5,201.4" fill="#3b8f5f" opacity="0.85"/>
<text class="case-label" x="218" y="197.9" text-anchor="end">ベネディクト会</text>
<text class="case-meta" x="218" y="209.9" text-anchor="end">529–</text>
<polygon points="500.3,189.9 505.3,196.9 500.3,203.9 495.3,196.9" fill="#4aa3df" stroke="#1a1a1a" stroke-width="0.5"/>
<title>529 founding [variation] — ベネディクトゥスが Monte Cassino に修道院を創立</title>
<rect x="534.5" y="207.9" width="114.4" height="9" rx="3" ry="3" fill="#b07256" opacity="0.78" stroke="#b07256" stroke-width="0.5"/>
<text class="case-label" x="218" y="213.4" text-anchor="end">バイト・アル=ヒクマ</text>
<text class="case-meta" x="218" y="225.4" text-anchor="end">786–1258</text>
<polygon points="534.5,205.4 539.5,212.4 534.5,219.4 529.5,212.4" fill="#4aa3df" stroke="#1a1a1a" stroke-width="0.5"/>
<title>786 founding [variation] — アッバース朝宮廷図書館として漸進的に成立 (Hārūn al-Rashīd 治下に拡張)</title>
<rect x="535.9" y="207.9" width="9" height="9" fill="#5cb85c" stroke="#1a1a1a" stroke-width="0.5"/>
<title>830 reform [retention] — al-Maʾmūn 治下で翻訳運動が制度的頂点へ。観測所併設、Hunayn 派の校訂体制確立</title>
<line x1="643.9" y1="207.4" x2="653.9" y2="217.4" stroke="#d9534f" stroke-width="2.2"/>
<line x1="643.9" y1="217.4" x2="653.9" y2="207.4" stroke="#d9534f" stroke-width="2.2"/>
<title>1258 dissolution [selection] — モンゴル軍 (フレグ) のバグダード攻略で破壊。チグリス川にインクの黒で流れたと伝承</title>
<rect x="534.8" y="223.5" width="793.7" height="9" rx="3" ry="3" fill="#3b8f5f" opacity="0.78" stroke="#3b8f5f" stroke-width="0.5"/>
<polygon points="1328.5,223.5 1336.5,228.0 1328.5,232.5" fill="#3b8f5f" opacity="0.85"/>
<text class="case-label" x="218" y="229.0" text-anchor="end">比叡山延暦寺</text>
<text class="case-meta" x="218" y="241.0" text-anchor="end">788–</text>
<polygon points="534.8,221.0 539.8,228.0 534.8,235.0 529.8,228.0" fill="#4aa3df" stroke="#1a1a1a" stroke-width="0.5"/>
<title>788 founding [variation] — 最澄が比叡山に一乗止観院を創建</title>
<circle cx="774.2" cy="228.0" r="6" fill="none" stroke="#f0ad4e" stroke-width="1.4" stroke-dasharray="2 1.5"/>
<circle cx="774.2" cy="228.0" r="2" fill="#f0ad4e"/>
<title>1571 crisis [struggle] — 織田信長の比叡山焼き討ち、僧兵・住人の大量虐殺</title>
<polygon points="782.3,222.0 787.8,233.0 776.8,233.0" fill="#5cb85c" stroke="#1a1a1a" stroke-width="0.5"/>
<title>1584 revival [retention] — 豊臣秀吉の保護下で再興開始</title>
<rect x="551.0" y="239.1" width="360.9" height="9" rx="3" ry="3" fill="#b07256" opacity="0.78" stroke="#b07256" stroke-width="0.5"/>
<text class="case-label" x="218" y="244.6" text-anchor="end">Cluny 修道会</text>
<text class="case-meta" x="218" y="256.6" text-anchor="end">910–1790</text>
<polygon points="551.0,236.6 556.0,243.6 551.0,250.6 546.0,243.6" fill="#4aa3df" stroke="#1a1a1a" stroke-width="0.5"/>
<title>910 founding [variation] — William I の寄進、教皇直属の修道院として創立</title>
<polygon points="590.1,238.6 601.1,238.6 595.6,249.6" fill="#4aa3df" stroke="#1a1a1a" stroke-width="0.5"/>
<title>1098 split [variation] — Robert of Molesme が Cluny を批判して Cîteaux 修道院を創立 — 修道院改革の最重要 schism</title>
<line x1="906.9" y1="238.6" x2="916.9" y2="248.6" stroke="#d9534f" stroke-width="2.2"/>
<line x1="906.9" y1="248.6" x2="916.9" y2="238.6" stroke="#d9534f" stroke-width="2.2"/>
<title>1790 dissolution [selection] — フランス革命で Constituent Assembly が修道会を世俗化、Cluny も 1793 年に解散</title>
<rect x="553.7" y="254.7" width="774.8" height="9" rx="3" ry="3" fill="#3b8f5f" opacity="0.78" stroke="#3b8f5f" stroke-width="0.5"/>
<polygon points="1328.5,254.7 1336.5,259.2 1328.5,263.7" fill="#3b8f5f" opacity="0.85"/>
<text class="case-label" x="218" y="260.2" text-anchor="end">安東権氏門中</text>
<text class="case-meta" x="218" y="272.2" text-anchor="end">930–</text>
<rect x="559.3" y="270.3" width="769.2" height="9" rx="3" ry="3" fill="#3b8f5f" opacity="0.78" stroke="#3b8f5f" stroke-width="0.5"/>
<polygon points="1328.5,270.3 1336.5,274.8 1328.5,279.3" fill="#3b8f5f" opacity="0.85"/>
<text class="case-label" x="218" y="275.8" text-anchor="end">アル・アズハル</text>
<text class="case-meta" x="218" y="287.8" text-anchor="end">972–</text>
<polygon points="559.3,267.8 564.3,274.8 559.3,281.8 554.3,274.8" fill="#4aa3df" stroke="#1a1a1a" stroke-width="0.5"/>
<title>972 founding [variation] — ファーティマ朝のジャウハル・シキッリーがカイロ建設の一環として Al-Azhar モスクを完成</title>
<rect x="615.4" y="270.3" width="9" height="9" fill="#5cb85c" stroke="#1a1a1a" stroke-width="0.5"/>
<title>1171 reform [retention] — サラディンによるアイユーブ朝樹立、Al-Azhar はシーア派からスンニ派教育機関へ転換</title>
<rect x="1137.3" y="270.3" width="9" height="9" fill="#5cb85c" stroke="#1a1a1a" stroke-width="0.5"/>
<title>1961 reform [retention] — ナーセル政権下の Law No. 103/1961 により近代大学として再編、世俗諸学 (医学・工学・農学等) 併設</title>
<rect x="592.3" y="285.8" width="736.2" height="9" rx="3" ry="3" fill="#3b8f5f" opacity="0.78" stroke="#3b8f5f" stroke-width="0.5"/>
<polygon points="1328.5,285.8 1336.5,290.3 1328.5,294.8" fill="#3b8f5f" opacity="0.85"/>
<text class="case-label" x="218" y="291.3" text-anchor="end">ボローニャ大学</text>
<text class="case-meta" x="218" y="303.3" text-anchor="end">1088–</text>
<polygon points="592.3,283.3 597.3,290.3 592.3,297.3 587.3,290.3" fill="#4aa3df" stroke="#1a1a1a" stroke-width="0.5"/>
<title>1088 founding [variation] — 伝統的な創立年。学生組合の自然形成</title>
<rect x="611.1" y="285.8" width="9" height="9" fill="#5cb85c" stroke="#1a1a1a" stroke-width="0.5"/>
<title>1158 governance_change [retention] — Frederick I が Authentica Habita を発布、大学に普遍的特権</title>
<rect x="595.6" y="301.4" width="732.9" height="9" rx="3" ry="3" fill="#3b8f5f" opacity="0.78" stroke="#3b8f5f" stroke-width="0.5"/>
<polygon points="1328.5,301.4 1336.5,305.9 1328.5,310.4" fill="#3b8f5f" opacity="0.85"/>
<text class="case-label" x="218" y="306.9" text-anchor="end">シトー会</text>
<text class="case-meta" x="218" y="318.9" text-anchor="end">1098–</text>
<polygon points="590.1,300.9 601.1,300.9 595.6,311.9" fill="#4aa3df" stroke="#1a1a1a" stroke-width="0.5"/>
<title>1098 split [variation] — Robert of Molesme が Cluny を批判して Cîteaux 修道院を創立 — 修道院改革の最重要 schism</title>
<rect x="615.9" y="317.0" width="219.9" height="9" rx="3" ry="3" fill="#b07256" opacity="0.78" stroke="#b07256" stroke-width="0.5"/>
<text class="case-label" x="218" y="322.5" text-anchor="end">ハンザ同盟</text>
<text class="case-meta" x="218" y="334.5" text-anchor="end">1159–1669</text>
<line x1="830.8" y1="316.5" x2="840.8" y2="326.5" stroke="#d9534f" stroke-width="2.2"/>
<line x1="830.8" y1="326.5" x2="840.8" y2="316.5" stroke="#d9534f" stroke-width="2.2"/>
<title>1669 dissolution [selection] — 最後のハンザ・ディエット開催、事実上の終焉</title>
<rect x="683.5" y="332.6" width="272.6" height="9" rx="3" ry="3" fill="#b07256" opacity="0.78" stroke="#b07256" stroke-width="0.5"/>
<text class="case-label" x="218" y="338.1" text-anchor="end">オスマン・ティマール制</text>
<text class="case-meta" x="218" y="350.1" text-anchor="end">1362–1831</text>
<polygon points="683.5,330.1 688.5,337.1 683.5,344.1 678.5,337.1" fill="#4aa3df" stroke="#1a1a1a" stroke-width="0.5"/>
<title>1362 founding [variation] — Murad I 治下で原型成立、Mehmed II (位 1444-46, 1451-81) 期に kanunname で標準化</title>
<line x1="951.2" y1="332.1" x2="961.2" y2="342.1" stroke="#d9534f" stroke-width="2.2"/>
<line x1="951.2" y1="342.1" x2="961.2" y2="332.1" stroke="#d9534f" stroke-width="2.2"/>
<title>1831 dissolution [selection] — マフムト 2 世が timar 制を正式廃止、新軍 (Asakir-i Mansure-i Muhammediye) と俸給軍へ移行</title>
<rect x="689.5" y="348.2" width="639.0" height="9" rx="3" ry="3" fill="#3b8f5f" opacity="0.78" stroke="#3b8f5f" stroke-width="0.5"/>
<polygon points="1328.5,348.2 1336.5,352.7 1328.5,357.2" fill="#3b8f5f" opacity="0.85"/>
<text class="case-label" x="218" y="353.7" text-anchor="end">ナクシュバンディー教団</text>
<text class="case-meta" x="218" y="365.7" text-anchor="end">1380–</text>
<polygon points="689.5,345.7 694.5,352.7 689.5,359.7 684.5,352.7" fill="#4aa3df" stroke="#1a1a1a" stroke-width="0.5"/>
<title>1380 founding [variation] — Bahā&#x27; al-Dīn Naqshband 周辺の弟子集団化、後継世代で tariqa 化</title>
<rect x="787.9" y="348.2" width="9" height="9" fill="#5cb85c" stroke="#1a1a1a" stroke-width="0.5"/>
<title>1600 reform [retention] — Aḥmad Sirhindī (1564-1624) によるムジャッディディー派形成、ムガル朝でシャリーア重視</title>
<rect x="938.2" y="348.2" width="9" height="9" fill="#5cb85c" stroke="#1a1a1a" stroke-width="0.5"/>
<title>1820 reform [retention] — Mawlānā Khālid al-Baghdādī (1779-1827) による Khalidiyya 派形成、オスマン帝国・コーカサスで急拡大</title>
<rect x="708.9" y="363.8" width="65.9" height="9" rx="3" ry="3" fill="#b07256" opacity="0.78" stroke="#b07256" stroke-width="0.5"/>
<text class="case-label" x="218" y="369.3" text-anchor="end">インカ帝国</text>
<text class="case-meta" x="218" y="381.3" text-anchor="end">1438–1572</text>
<polygon points="708.9,361.3 713.9,368.3 708.9,375.3 703.9,368.3" fill="#4aa3df" stroke="#1a1a1a" stroke-width="0.5"/>
<title>1438 founding [variation] — Pachacuti の即位 + Chanca 戦勝で帝国化開始</title>
<line x1="769.8" y1="363.3" x2="779.8" y2="373.3" stroke="#d9534f" stroke-width="2.2"/>
<line x1="769.8" y1="373.3" x2="779.8" y2="363.3" stroke="#d9534f" stroke-width="2.2"/>
<title>1572 dissolution [selection] — 最後のインカ Tupac Amaru I がスペイン人によって Cuzco で処刑</title>
<rect x="717.5" y="379.3" width="378.3" height="9" rx="3" ry="3" fill="#c5a050" opacity="0.78" stroke="#c5a050" stroke-width="0.5"/>
<text class="case-label" x="218" y="384.8" text-anchor="end">ベトナム郷約</text>
<text class="case-meta" x="218" y="396.8" text-anchor="end">1464–1945</text>
<polygon points="717.5,376.8 722.5,383.8 717.5,390.8 712.5,383.8" fill="#5cb85c" stroke="#1a1a1a" stroke-width="0.5"/>
<title>1464 founding [retention] — Lê Thánh Tông (Hồng Đức 帝) が Hồng Đức thiện chính thư で郷約を公式制度として承認</title>
<rect x="729.5" y="394.9" width="335.7" height="9" rx="3" ry="3" fill="#b07256" opacity="0.78" stroke="#b07256" stroke-width="0.5"/>
<text class="case-label" x="218" y="400.4" text-anchor="end">山西商人ネットワーク</text>
<text class="case-meta" x="218" y="412.4" text-anchor="end">1500–1920</text>
<line x1="1060.2" y1="394.4" x2="1070.2" y2="404.4" stroke="#d9534f" stroke-width="2.2"/>
<line x1="1060.2" y1="404.4" x2="1070.2" y2="394.4" stroke="#d9534f" stroke-width="2.2"/>
<title>1920 dissolution [selection] — 辛亥革命・近代銀行・軍閥混戦により山西票号と商幫が事実上解体</title>
<rect x="748.4" y="410.5" width="32.7" height="9" rx="3" ry="3" fill="#b07256" opacity="0.78" stroke="#b07256" stroke-width="0.5"/>
<text class="case-label" x="218" y="416.0" text-anchor="end">堺会合衆</text>
<text class="case-meta" x="218" y="428.0" text-anchor="end">1530–1582</text>
<line x1="776.1" y1="410.0" x2="786.1" y2="420.0" stroke="#d9534f" stroke-width="2.2"/>
<line x1="776.1" y1="420.0" x2="786.1" y2="410.0" stroke="#d9534f" stroke-width="2.2"/>
<title>1582 dissolution [selection] — 本能寺の変後、秀吉が堺を直轄化。商人を大坂に移転させ会合衆自治を解体</title>
<rect x="765.4" y="426.1" width="563.2" height="9" rx="3" ry="3" fill="#c5a050" opacity="0.78" stroke="#c5a050" stroke-width="0.5"/>
<polygon points="1328.5,426.1 1336.5,430.6 1328.5,435.1" fill="#c5a050" opacity="0.85"/>
<text class="case-label" x="218" y="431.6" text-anchor="end">スレイマニエ・キュリエ</text>
<text class="case-meta" x="218" y="443.6" text-anchor="end">1557–</text>
<polygon points="765.4,423.6 770.4,430.6 765.4,437.6 760.4,430.6" fill="#4aa3df" stroke="#1a1a1a" stroke-width="0.5"/>
<title>1557 founding [variation] — Süleymaniye 本体モスク完成、waqfiyya 登録</title>
<rect x="1065.6" y="426.1" width="9" height="9" fill="#d9534f" stroke="#1a1a1a" stroke-width="0.5"/>
<title>1924 reorganization [selection] — トルコ共和国 1924 年 Tevhid-i Tedrisat (教育統一法) と waqf 国有化により ワクフは Vakıflar Genel Müdürlüğü (国家ワクフ庁) 管轄へ、機能分離</title>
<rect x="774.2" y="441.7" width="215.1" height="9" rx="3" ry="3" fill="#b07256" opacity="0.78" stroke="#b07256" stroke-width="0.5"/>
<text class="case-label" x="218" y="447.2" text-anchor="end">ムガル朝マンサブダール制</text>
<text class="case-meta" x="218" y="459.2" text-anchor="end">1571–1858</text>
<polygon points="774.2,439.2 779.2,446.2 774.2,453.2 769.2,446.2" fill="#4aa3df" stroke="#1a1a1a" stroke-width="0.5"/>
<title>1571 founding [variation] — アクバル帝の改革により mansabdari 制度が体系化</title>
<line x1="984.2" y1="441.2" x2="994.2" y2="451.2" stroke="#d9534f" stroke-width="2.2"/>
<line x1="984.2" y1="451.2" x2="994.2" y2="441.2" stroke="#d9534f" stroke-width="2.2"/>
<title>1858 dissolution [selection] — セポイの乱後、英領インド統治法によりムガル朝公式廃止</title>
<rect x="793.7" y="457.2" width="123.9" height="9" rx="3" ry="3" fill="#b07256" opacity="0.78" stroke="#b07256" stroke-width="0.5"/>
<text class="case-label" x="218" y="462.7" text-anchor="end">オランダ東インド会社</text>
<text class="case-meta" x="218" y="474.7" text-anchor="end">1602–1799</text>
<polygon points="793.7,454.7 798.7,461.7 793.7,468.7 788.7,461.7" fill="#4aa3df" stroke="#1a1a1a" stroke-width="0.5"/>
<title>1602 founding [variation] — オランダ国会が VOC に 21 年間の独占特許を付与</title>
<line x1="912.6" y1="456.7" x2="922.6" y2="466.7" stroke="#d9534f" stroke-width="2.2"/>
<line x1="912.6" y1="466.7" x2="922.6" y2="456.7" stroke="#d9534f" stroke-width="2.2"/>
<title>1799 dissolution [selection] — VOC が解散、債務をオランダ政府が引き受け</title>
<rect x="827.6" y="472.8" width="211.8" height="9" rx="3" ry="3" fill="#c5a050" opacity="0.78" stroke="#c5a050" stroke-width="0.5"/>
<text class="case-label" x="218" y="478.3" text-anchor="end">鴻池家</text>
<text class="case-meta" x="218" y="490.3" text-anchor="end">1656–1899</text>
<polygon points="827.6,470.3 832.6,477.3 827.6,484.3 822.6,477.3" fill="#4aa3df" stroke="#1a1a1a" stroke-width="0.5"/>
<title>1656 founding [variation] — 鴻池善右衛門 正成が大坂今橋に両替店開業</title>
<rect x="1035.0" y="472.8" width="9" height="9" fill="#5cb85c" stroke="#1a1a1a" stroke-width="0.5"/>
<title>1899 reorganization [retention] — 鴻池銀行を株式会社として設立、家業から KK へ</title>
<rect x="836.4" y="488.4" width="293.8" height="9" rx="3" ry="3" fill="#c5a050" opacity="0.78" stroke="#c5a050" stroke-width="0.5"/>
<text class="case-label" x="218" y="493.9" text-anchor="end">アシャンティ王国</text>
<text class="case-meta" x="218" y="505.9" text-anchor="end">1670–1957</text>
<polygon points="855.9,485.9 860.9,492.9 855.9,499.9 850.9,492.9" fill="#4aa3df" stroke="#1a1a1a" stroke-width="0.5"/>
<title>1701 founding [variation] — Denkyira 戦勝、Osei Tutu が初代 Asantehene として帝国を確立</title>
<circle cx="1035.8" cy="492.9" r="6" fill="none" stroke="#f0ad4e" stroke-width="1.4" stroke-dasharray="2 1.5"/>
<circle cx="1035.8" cy="492.9" r="2" fill="#f0ad4e"/>
<title>1896 crisis [struggle] — 第四次 Anglo-Ashanti 戦争で英国が Asantehene Prempeh I を流刑、保護領化</title>
<polygon points="1130.3,486.9 1135.8,497.9 1124.8,497.9" fill="#5cb85c" stroke="#1a1a1a" stroke-width="0.5"/>
<title>1957 revival [retention] — ガーナ独立、Asante kingdom が文化的存在として復元</title>
<rect x="838.3" y="504.0" width="490.2" height="9" rx="3" ry="3" fill="#3b8f5f" opacity="0.78" stroke="#3b8f5f" stroke-width="0.5"/>
<polygon points="1328.5,504.0 1336.5,508.5 1328.5,513.0" fill="#3b8f5f" opacity="0.85"/>
<text class="case-label" x="218" y="509.5" text-anchor="end">三井越後屋</text>
<text class="case-meta" x="218" y="521.5" text-anchor="end">1673–</text>
<polygon points="838.3,501.5 843.3,508.5 838.3,515.5 833.3,508.5" fill="#4aa3df" stroke="#1a1a1a" stroke-width="0.5"/>
<title>1673 founding [variation] — 三井高利が江戸日本橋に呉服店「越後屋」を出店</title>
<rect x="1047.2" y="504.0" width="9" height="9" fill="#5cb85c" stroke="#1a1a1a" stroke-width="0.5"/>
<title>1909 reorganization [retention] — 三井合名会社設立、財閥としての法人化</title>
<line x1="1096.5" y1="503.5" x2="1106.5" y2="513.5" stroke="#d9534f" stroke-width="2.2"/>
<line x1="1096.5" y1="513.5" x2="1106.5" y2="503.5" stroke="#d9534f" stroke-width="2.2"/>
<title>1947 dissolution [selection] — GHQ により三井財閥解体、持株会社禁止</title>
<polygon points="1124.5,502.5 1130.0,513.5 1119.0,513.5" fill="#5cb85c" stroke="#1a1a1a" stroke-width="0.5"/>
<title>1955 revival [retention] — 三井グループとして再編 (相互持合・社長会型)</title>
<rect x="995.4" y="519.6" width="333.1" height="9" rx="3" ry="3" fill="#3b8f5f" opacity="0.78" stroke="#3b8f5f" stroke-width="0.5"/>
<polygon points="1328.5,519.6 1336.5,524.1 1328.5,528.6" fill="#3b8f5f" opacity="0.85"/>
<text class="case-label" x="218" y="525.1" text-anchor="end">International Committee of the Red Cross</text>
<text class="case-meta" x="218" y="537.1" text-anchor="end">1863–</text>
<polygon points="995.4,517.1 1000.4,524.1 995.4,531.1 990.4,524.1" fill="#4aa3df" stroke="#1a1a1a" stroke-width="0.5"/>
<title>1863 founding [variation] — Henry Dunant、Gustave Moynier ら &#x27;5 人委員会&#x27; が Geneva で初会合</title>
<rect x="992.1" y="519.6" width="9" height="9" fill="#5cb85c" stroke="#1a1a1a" stroke-width="0.5"/>
<title>1864 reform [retention] — 第 1 回 Geneva Convention 採択 — 戦地軍隊の傷病者改善条約</title>
<rect x="1102.8" y="519.6" width="9" height="9" fill="#5cb85c" stroke="#1a1a1a" stroke-width="0.5"/>
<title>1949 reform [retention] — 4 つの Geneva Conventions (1949) 採択。戦後人道法の基礎</title>
<rect x="1086.0" y="535.2" width="242.5" height="9" rx="3" ry="3" fill="#3b8f5f" opacity="0.78" stroke="#3b8f5f" stroke-width="0.5"/>
<polygon points="1328.5,535.2 1336.5,539.7 1328.5,544.2" fill="#3b8f5f" opacity="0.85"/>
<text class="case-label" x="218" y="540.7" text-anchor="end">Toyota Motor Corporation</text>
<text class="case-meta" x="218" y="552.7" text-anchor="end">1937–</text>
<polygon points="1086.0,532.7 1091.0,539.7 1086.0,546.7 1081.0,539.7" fill="#4aa3df" stroke="#1a1a1a" stroke-width="0.5"/>
<title>1937 founding [variation] — Toyota Motor Co., Ltd. 設立 (豊田自動織機自動車部からのスピンオフ)</title>
<circle cx="1110.2" cy="539.7" r="6" fill="none" stroke="#f0ad4e" stroke-width="1.4" stroke-dasharray="2 1.5"/>
<circle cx="1110.2" cy="539.7" r="2" fill="#f0ad4e"/>
<title>1950 crisis [struggle] — 戦後経営危機 / 労働争議。創業者 豊田喜一郎 引責辞任。後の TPS 形成の起点</title>
<rect x="1095.8" y="550.7" width="232.7" height="9" rx="3" ry="3" fill="#3b8f5f" opacity="0.78" stroke="#3b8f5f" stroke-width="0.5"/>
<polygon points="1328.5,550.7 1336.5,555.2 1328.5,559.7" fill="#3b8f5f" opacity="0.85"/>
<text class="case-label" x="218" y="556.2" text-anchor="end">United Nations</text>
<text class="case-meta" x="218" y="568.2" text-anchor="end">1945–</text>
<polygon points="1095.8,548.2 1100.8,555.2 1095.8,562.2 1090.8,555.2" fill="#4aa3df" stroke="#1a1a1a" stroke-width="0.5"/>
<title>1945 founding [variation] — 国連憲章発効、UN 公式発足</title>
<rect x="1127.4" y="566.3" width="201.1" height="9" rx="3" ry="3" fill="#3b8f5f" opacity="0.78" stroke="#3b8f5f" stroke-width="0.5"/>
<polygon points="1328.5,566.3 1336.5,570.8 1328.5,575.3" fill="#3b8f5f" opacity="0.85"/>
<text class="case-label" x="218" y="571.8" text-anchor="end">Mondragón Corporación Cooperativa</text>
<text class="case-meta" x="218" y="583.8" text-anchor="end">1956–</text>
<polygon points="1127.4,563.8 1132.4,570.8 1127.4,577.8 1122.4,570.8" fill="#4aa3df" stroke="#1a1a1a" stroke-width="0.5"/>
<title>1956 founding [variation] — ULGOR (現 Fagor) を 5 人の弟子が設立</title>
<circle cx="1291.2" cy="570.8" r="6" fill="none" stroke="#f0ad4e" stroke-width="1.4" stroke-dasharray="2 1.5"/>
<circle cx="1291.2" cy="570.8" r="2" fill="#f0ad4e"/>
<title>2013 crisis [struggle] — Fagor Electrodomésticos が破産申請、Mondragón 史上最大の危機</title>
<rect x="1133.1" y="581.9" width="195.4" height="9" rx="3" ry="3" fill="#3b8f5f" opacity="0.78" stroke="#3b8f5f" stroke-width="0.5"/>
<polygon points="1328.5,581.9 1336.5,586.4 1328.5,590.9" fill="#3b8f5f" opacity="0.85"/>
<text class="case-label" x="218" y="587.4" text-anchor="end">Defense Advanced Research Projects Agency</text>
<text class="case-meta" x="218" y="599.4" text-anchor="end">1958–</text>
<polygon points="1133.1,579.4 1138.1,586.4 1133.1,593.4 1128.1,586.4" fill="#4aa3df" stroke="#1a1a1a" stroke-width="0.5"/>
<title>1958 founding [variation] — DOD Directive 5105.15 により ARPA 設立。Sputnik (1957-10-04) ショック後の対応</title>
<rect x="1160.3" y="581.9" width="9" height="9" fill="#4aa3df" stroke="#1a1a1a" stroke-width="0.5"/>
<title>1969 reform [variation] — ARPANET first message: UCLA → Stanford (Charley Kline)。Internet 史の起点</title>
<circle cx="1173.4" cy="586.4" r="4" fill="#5cb85c" stroke="#1a1a1a" stroke-width="0.4"/>
<title>1972 renaming [retention] — ARPA → DARPA (Defense を冠付加)</title>
<rect x="1136.0" y="597.5" width="192.5" height="9" rx="3" ry="3" fill="#3b8f5f" opacity="0.78" stroke="#3b8f5f" stroke-width="0.5"/>
<polygon points="1328.5,597.5 1336.5,602.0 1328.5,606.5" fill="#3b8f5f" opacity="0.85"/>
<text class="case-label" x="218" y="603.0" text-anchor="end">京セラ</text>
<text class="case-meta" x="218" y="615.0" text-anchor="end">1959–</text>
<polygon points="1136.0,595.0 1141.0,602.0 1136.0,609.0 1131.0,602.0" fill="#4aa3df" stroke="#1a1a1a" stroke-width="0.5"/>
<title>1959 founding [variation] — 京都市内の倉庫を借りて京都セラミック株式会社を 8 名で設立</title>
<rect x="1278.0" y="597.5" width="9" height="9" fill="#4aa3df" stroke="#1a1a1a" stroke-width="0.5"/>
<title>2010 governance_change [variation] — 稲盛和夫が政府要請を受け JAL 会長に無報酬で就任、アメーバ経営を移植</title>
<circle cx="1288.3" cy="602.0" r="4" fill="#5cb85c" stroke="#1a1a1a" stroke-width="0.4"/>
<title>2012 ipo [retention] — JAL が東京証券取引所一部に再上場 (2 年 7 ヶ月)、世界航空業の最短再生記録</title>
<rect x="1156.1" y="613.1" width="46.0" height="9" rx="3" ry="3" fill="#b07256" opacity="0.78" stroke="#b07256" stroke-width="0.5"/>
<text class="case-label" x="218" y="618.6" text-anchor="end">Black Panther Party</text>
<text class="case-meta" x="218" y="630.6" text-anchor="end">1966–1982</text>
<polygon points="1156.1,610.6 1161.1,617.6 1156.1,624.6 1151.1,617.6" fill="#4aa3df" stroke="#1a1a1a" stroke-width="0.5"/>
<title>1966 founding [variation] — Bobby Seale と Huey P. Newton がカリフォルニア州オークランドで Black Panther Party for Self-Defense を結党</title>
<rect x="1160.3" y="613.1" width="9" height="9" fill="#5cb85c" stroke="#1a1a1a" stroke-width="0.5"/>
<title>1969 reform [retention] — Free Breakfast for Children プログラム開始 (Oakland St. Augustine&#x27;s 聖公会教会)</title>
<line x1="1197.1" y1="612.6" x2="1207.1" y2="622.6" stroke="#d9534f" stroke-width="2.2"/>
<line x1="1197.1" y1="622.6" x2="1207.1" y2="612.6" stroke="#d9534f" stroke-width="2.2"/>
<title>1982 dissolution [selection] — Oakland Community School 閉鎖をもって BPP が事実上解体。1980 年時点で実働メンバー 27 名にまで縮小</title>
<rect x="1170.5" y="628.6" width="158.0" height="9" rx="3" ry="3" fill="#3b8f5f" opacity="0.78" stroke="#3b8f5f" stroke-width="0.5"/>
<polygon points="1328.5,628.6 1336.5,633.1 1328.5,637.6" fill="#3b8f5f" opacity="0.85"/>
<text class="case-label" x="218" y="634.1" text-anchor="end">Greenpeace International</text>
<text class="case-meta" x="218" y="646.1" text-anchor="end">1971–</text>
<polygon points="1170.5,626.1 1175.5,633.1 1170.5,640.1 1165.5,633.1" fill="#4aa3df" stroke="#1a1a1a" stroke-width="0.5"/>
<title>1971 founding [variation] — Phyllis Cormack 号 (改名 Greenpeace) が Vancouver から Amchitka 核実験海域へ出航</title>
<rect x="1189.0" y="628.6" width="9" height="9" fill="#5cb85c" stroke="#1a1a1a" stroke-width="0.5"/>
<title>1979 reorganization [retention] — Stichting Greenpeace Council を Amsterdam で設立、各国オフィスを連合化</title>
<circle cx="1210.7" cy="633.1" r="6" fill="none" stroke="#f0ad4e" stroke-width="1.4" stroke-dasharray="2 1.5"/>
<circle cx="1210.7" cy="633.1" r="2" fill="#f0ad4e"/>
<title>1985 crisis [struggle] — Rainbow Warrior 号がフランス DGSE により Auckland 港で爆破。Fernando Pereira 死亡</title>
<rect x="1173.4" y="644.2" width="155.1" height="9" rx="3" ry="3" fill="#3b8f5f" opacity="0.78" stroke="#3b8f5f" stroke-width="0.5"/>
<polygon points="1328.5,644.2 1336.5,648.7 1328.5,653.2" fill="#3b8f5f" opacity="0.85"/>
<text class="case-label" x="218" y="649.7" text-anchor="end">Self-Employed Women&#x27;s Association</text>
<text class="case-meta" x="218" y="661.7" text-anchor="end">1972–</text>
<polygon points="1173.4,641.7 1178.4,648.7 1173.4,655.7 1168.4,648.7" fill="#4aa3df" stroke="#1a1a1a" stroke-width="0.5"/>
<title>1972 founding [variation] — Ela Bhatt が Ahmedabad で SEWA を労働組合として登録</title>
<rect x="1174.6" y="644.2" width="9" height="9" fill="#4aa3df" stroke="#1a1a1a" stroke-width="0.5"/>
<title>1974 reform [variation] — Mahila SEWA Sahakari Bank 設立、4,000 名の女性自営業者が出資</title>
<rect x="1205.0" y="659.8" width="123.5" height="9" rx="3" ry="3" fill="#3b8f5f" opacity="0.78" stroke="#3b8f5f" stroke-width="0.5"/>
<polygon points="1328.5,659.8 1336.5,664.3 1328.5,668.8" fill="#3b8f5f" opacity="0.85"/>
<text class="case-label" x="218" y="665.3" text-anchor="end">Grameen Bank</text>
<text class="case-meta" x="218" y="677.3" text-anchor="end">1983–</text>
<polygon points="1205.0,657.3 1210.0,664.3 1205.0,671.3 1200.0,664.3" fill="#5cb85c" stroke="#1a1a1a" stroke-width="0.5"/>
<title>1983 founding [retention] — Bangladesh 政府が Grameen Bank を独立銀行として認可</title>
<rect x="1266.5" y="659.8" width="9" height="9" fill="#5cb85c" stroke="#1a1a1a" stroke-width="0.5"/>
<title>2006 reform [retention] — Yunus と Grameen Bank が共同でノーベル平和賞受賞</title>
<rect x="1228.0" y="675.4" width="100.6" height="9" rx="3" ry="3" fill="#3b8f5f" opacity="0.78" stroke="#3b8f5f" stroke-width="0.5"/>
<polygon points="1328.5,675.4 1336.5,679.9 1328.5,684.4" fill="#3b8f5f" opacity="0.85"/>
<text class="case-label" x="218" y="680.9" text-anchor="end">Linux Kernel Community</text>
<text class="case-meta" x="218" y="692.9" text-anchor="end">1991–</text>
<polygon points="1228.0,672.9 1233.0,679.9 1228.0,686.9 1223.0,679.9" fill="#4aa3df" stroke="#1a1a1a" stroke-width="0.5"/>
<title>1991 founding [variation] — Linus Torvalds が comp.os.minix newsgroup で Linux カーネルを公開アナウンス (&#x27;What would you like to see most in minix?&#x27;)</title>
<circle cx="1268.2" cy="679.9" r="4" fill="#4aa3df" stroke="#1a1a1a" stroke-width="0.4"/>
<title>2005 platform_shift [variation] — Linux 開発で Git が初使用 (BitKeeper ライセンス問題から自作)</title>
<rect x="1321.1" y="675.4" width="9" height="9" fill="#5cb85c" stroke="#1a1a1a" stroke-width="0.5"/>
<title>2025 governance_change [retention] — Linux Kernel Maintainer Summit (Tokyo) で Linux Kernel Continuity Document が起草。Torvalds 不在時の Conclave (TAB + Maintainer Summit 出席者) による後継プロトコル整備</title>
<rect x="1262.4" y="691.0" width="66.1" height="9" rx="3" ry="3" fill="#3b8f5f" opacity="0.78" stroke="#3b8f5f" stroke-width="0.5"/>
<polygon points="1328.5,691.0 1336.5,695.5 1328.5,700.0" fill="#3b8f5f" opacity="0.85"/>
<text class="case-label" x="218" y="696.5" text-anchor="end">Wikimedia Foundation</text>
<text class="case-meta" x="218" y="708.5" text-anchor="end">2003–</text>
<polygon points="1262.4,688.5 1267.4,695.5 1262.4,702.5 1257.4,695.5" fill="#4aa3df" stroke="#1a1a1a" stroke-width="0.5"/>
<title>2003 founding [variation] — Wikimedia Foundation を Florida 州で 501(c)(3) として法人化</title>
<rect x="1262.4" y="706.5" width="66.1" height="9" rx="3" ry="3" fill="#3b8f5f" opacity="0.78" stroke="#3b8f5f" stroke-width="0.5"/>
<polygon points="1328.5,706.5 1336.5,711.0 1328.5,715.5" fill="#3b8f5f" opacity="0.85"/>
<text class="case-label" x="218" y="712.0" text-anchor="end">Anonymous</text>
<text class="case-meta" x="218" y="724.0" text-anchor="end">2003–</text>
<polygon points="1262.4,704.0 1267.4,711.0 1262.4,718.0 1257.4,711.0" fill="#4aa3df" stroke="#1a1a1a" stroke-width="0.5"/>
<title>2003 founding [variation] — 4chan 開設 (2003-10-01) を契機に &#x27;Anonymous&#x27; 既定ユーザー名から集合的識別子が発生</title>
<rect x="1272.3" y="706.5" width="9" height="9" fill="#4aa3df" stroke="#1a1a1a" stroke-width="0.5"/>
<title>2008 reform [variation] — Project Chanology 開始: Tom Cruise の Scientology 動画削除工作への抗議を契機に、Anonymous がトロール集団からハクティビズム運動へ転化</title>
<rect x="1273.9" y="722.1" width="54.6" height="9" rx="3" ry="3" fill="#3b8f5f" opacity="0.78" stroke="#3b8f5f" stroke-width="0.5"/>
<polygon points="1328.5,722.1 1336.5,726.6 1328.5,731.1" fill="#3b8f5f" opacity="0.85"/>
<text class="case-label" x="218" y="727.6" text-anchor="end">Linux Foundation</text>
<text class="case-meta" x="218" y="739.6" text-anchor="end">2007–</text>
<circle cx="1271.4" cy="726.6" r="4" fill="#5cb85c" opacity="0.85" stroke="#1a1a1a" stroke-width="0.4"/>
<circle cx="1276.4" cy="726.6" r="4" fill="#5cb85c" opacity="0.85" stroke="#1a1a1a" stroke-width="0.4"/>
<title>2007 merger [retention] — OSDL と FSG が合併し Linux Foundation 設立</title>
<rect x="1302.7" y="737.7" width="25.9" height="9" rx="3" ry="3" fill="#3b8f5f" opacity="0.78" stroke="#3b8f5f" stroke-width="0.5"/>
<polygon points="1328.5,737.7 1336.5,742.2 1328.5,746.7" fill="#3b8f5f" opacity="0.85"/>
<text class="case-label" x="218" y="743.2" text-anchor="end">MakerDAO</text>
<text class="case-meta" x="218" y="755.2" text-anchor="end">2017–</text>
<polygon points="1302.7,735.2 1307.7,742.2 1302.7,749.2 1297.7,742.2" fill="#4aa3df" stroke="#1a1a1a" stroke-width="0.5"/>
<title>2017 founding [variation] — Maker / DAI smart contract をイーサリアムメインネットへデプロイ</title>
<rect x="1309.6" y="737.7" width="9" height="9" fill="#5cb85c" stroke="#1a1a1a" stroke-width="0.5"/>
<title>2021 governance_change [retention] — Maker Foundation が解体を発表、完全 DAO 化</title>
<text class="legend-head" x="230" y="790">バー (status):</text>
<rect x="330" y="782" width="14" height="9" rx="2" ry="2" fill="#3b8f5f" opacity="0.78"/>
<text class="legend-text" x="348" y="790">active</text>
<rect x="404" y="782" width="14" height="9" rx="2" ry="2" fill="#b07256" opacity="0.78"/>
<text class="legend-text" x="422" y="790">extinct</text>
<rect x="484" y="782" width="14" height="9" rx="2" ry="2" fill="#c5a050" opacity="0.78"/>
<text class="legend-text" x="502" y="790">transformed</text>
<rect x="588" y="782" width="14" height="9" rx="2" ry="2" fill="#5a8a4a" opacity="0.78"/>
<text class="legend-text" x="606" y="790">merged</text>
<rect x="662" y="782" width="14" height="9" rx="2" ry="2" fill="#8a70a0" opacity="0.78"/>
<text class="legend-text" x="680" y="790">split</text>
<rect x="730" y="782" width="14" height="9" rx="2" ry="2" fill="#888888" opacity="0.78"/>
<text class="legend-text" x="748" y="790">unknown</text>
<text class="legend-head" x="960" y="28">dot 色 (VSR):</text>
<circle cx="1053" cy="25" r="5" fill="#4aa3df" stroke="#1a1a1a" stroke-width="0.4"/>
<text class="legend-text" x="1062" y="28">variation</text>
<circle cx="1138" cy="25" r="5" fill="#d9534f" stroke="#1a1a1a" stroke-width="0.4"/>
<text class="legend-text" x="1147" y="28">selection</text>
<circle cx="1223" cy="25" r="5" fill="#5cb85c" stroke="#1a1a1a" stroke-width="0.4"/>
<text class="legend-text" x="1232" y="28">retention</text>
<circle cx="1308" cy="25" r="5" fill="#f0ad4e" stroke="#1a1a1a" stroke-width="0.4"/>
<text class="legend-text" x="1317" y="28">struggle</text>
<text class="legend-head" x="620" y="50">dot 形 (event):</text>
<text class="legend-text" x="712" y="50">◆ founding</text>
<text class="legend-text" x="788.0" y="50">× dissolution</text>
<text class="legend-text" x="883.2" y="50">■ reorg/reform</text>
<text class="legend-text" x="984.8000000000001" y="50">▲ revival</text>
<text class="legend-text" x="1054.4" y="50">▼ split/schism</text>
<text class="legend-text" x="1156.0" y="50">◌ crisis</text>
<text class="legend-text" x="1219.2" y="50">◎ merger</text>
</svg>